<?xml version="1.0" encoding="utf-8"?>
<!-- Generator: Adobe Illustrator 26.5.0, SVG Export Plug-In . SVG Version: 6.00 Build 0)  -->
<svg version="1.1" id="Layer_1" xmlns="http://www.w3.org/2000/svg" xmlns:xlink="http://www.w3.org/1999/xlink" x="0px" y="0px"
	 viewBox="0 0 645.4 1006.3" style="enable-background:new 0 0 645.4 1006.3;" xml:space="preserve">
<style type="text/css">
	.st0{fill:#FFFFFF;}
	.st1{fill:none;stroke:#A7A9AC;stroke-miterlimit:10;}
	.st2{fill:#D8D8D8;}
	.st3{fill:#58B447;}
	.st4{fill:#293683;}
	.st5{fill:#8C8587;}
</style>
<g>
	
		<image style="overflow:visible;opacity:0.75;enable-background:new    ;" width="2715" height="4224" xlink:href="7914F752.png"  transform="matrix(0.2399 0 0 0.2392 -3.0079 -0.46)">
	</image>
	<g>
		<path class="st0" d="M576.6,1005.8H66.9c-37.5,0-67.9-30.3-67.9-67.7V69.4C-0.9,32,29.5,1.7,66.9,1.7h509.7
			c37.5,0,67.9,30.3,67.9,67.6v868.7C644.5,975.5,614.1,1005.8,576.6,1005.8z"/>
	</g>
</g>
<line class="st1" x1="33" y1="682.1" x2="579.5" y2="682.1"/>
<g>
	<g>
		<path id="XMLID_00000083803110790796792660000006204543175870680735_" class="st2" d="M109.5,682.1L109.5,682.1
			c-9,0-16.3-8.5-16.3-19V436.8c0-10.5,7.3-19,16.3-19l0,0c9,0,16.3,8.5,16.3,19v226.3C125.8,673.6,118.5,682.1,109.5,682.1z"/>
		<path id="XMLID_00000076566446471583747650000014063566243032530622_" class="st3" d="M109.5,682.1L109.5,682.1
			c-9,0-16.3-7.3-16.3-16.3V515.6c0-9,7.3-16.3,16.3-16.3l0,0c9,0,16.3,7.3,16.3,16.3v150.2C125.8,674.9,118.5,682.1,109.5,682.1z"
			/>
	</g>
	<g>
		<path id="XMLID_00000151524878389530187930000017572162252417141652_" class="st2" d="M180.3,682.1L180.3,682.1
			c-9,0-16.3-8.5-16.3-19V436.8c0-10.5,7.3-19,16.3-19l0,0c9,0,16.3,8.5,16.3,19v226.3C196.5,673.6,189.3,682.1,180.3,682.1z"/>
		<path id="XMLID_00000107555316413517094550000013661601961549400236_" class="st3" d="M180.3,682.1L180.3,682.1
			c-9,0-16.3-7.3-16.3-16.3v-64.4c0-9,7.3-16.3,16.3-16.3l0,0c9,0,16.3,7.3,16.3,16.3v64.4C196.5,674.9,189.3,682.1,180.3,682.1z"/>
	</g>
	<g>
		<path id="XMLID_00000103974161705094634100000000471347181934551713_" class="st2" d="M251,682.1L251,682.1c-9,0-16.3-8.5-16.3-19
			V436.8c0-10.5,7.3-19,16.3-19l0,0c9,0,16.3,8.5,16.3,19v226.3C267.3,673.6,260,682.1,251,682.1z"/>
		<path id="XMLID_00000142873912481488764460000004333916268880658589_" class="st3" d="M251,682.1L251,682.1
			c-9,0-16.3-7.3-16.3-16.3V534.6c0-9,7.3-16.3,16.3-16.3l0,0c9,0,16.3,7.3,16.3,16.3v131.3C267.3,674.9,260,682.1,251,682.1z"/>
	</g>
	<g>
		<path id="XMLID_00000183947014720404237390000009591809178109652154_" class="st2" d="M321.8,682.1L321.8,682.1
			c-9,0-16.3-8.5-16.3-19V436.8c0-10.5,7.3-19,16.3-19l0,0c9,0,16.3,8.5,16.3,19v226.3C338,673.6,330.8,682.1,321.8,682.1z"/>
		<path id="XMLID_00000036221052819161752890000006443477121259699366_" class="st3" d="M321.8,682.1L321.8,682.1
			c-9,0-16.3-8.3-16.3-18.5v-164c0-10.2,7.3-18.5,16.3-18.5l0,0c9,0,16.3,8.3,16.3,18.5v164C338,673.8,330.8,682.1,321.8,682.1z"/>
	</g>
	<g>
		<path id="XMLID_00000010996740643836319340000007345342270768499601_" class="st2" d="M392.5,682.1L392.5,682.1
			c-9,0-16.3-8.5-16.3-19V436.8c0-10.5,7.3-19,16.3-19l0,0c9,0,16.3,8.5,16.3,19v226.3C408.8,673.6,401.5,682.1,392.5,682.1z"/>
		<path id="XMLID_00000168101094169205908040000009844110750589924018_" class="st4" d="M392.5,682.1L392.5,682.1
			c-9,0-16.3-8.5-16.3-18.9V510.7c0-10.4,7.3-18.9,16.3-18.9l0,0c9,0,16.3,8.5,16.3,18.9v152.5C408.8,673.7,401.5,682.1,392.5,682.1
			z"/>
	</g>
	<g>
		<path id="XMLID_00000083795508165393053100000007331994965065238659_" class="st2" d="M463.3,682.1L463.3,682.1
			c-9,0-16.3-8.5-16.3-19V436.8c0-10.5,7.3-19,16.3-19l0,0c9,0,16.3,8.5,16.3,19v226.3C479.5,673.6,472.3,682.1,463.3,682.1z"/>
		<path id="XMLID_00000090989049830151399580000017912348772493104303_" class="st4" d="M463.3,682.1L463.3,682.1
			c-9,0-16.3-7.2-16.3-16.2V523c0-8.9,7.3-16.1,16.3-16.1l0,0c9,0,16.3,7.2,16.3,16.1v143C479.5,674.9,472.3,682.1,463.3,682.1z"/>
	</g>
	<g>
		<path id="XMLID_00000179613675249469964410000010210668139556554374_" class="st2" d="M534,682.1L534,682.1c-9,0-16.3-8.5-16.3-19
			V436.8c0-10.5,7.3-19,16.3-19l0,0c9,0,16.3,8.5,16.3,19v226.3C550.3,673.6,543,682.1,534,682.1z"/>
		<path id="XMLID_00000016071768847798362630000002608875474269425547_" class="st4" d="M534,682.1L534,682.1c-9,0-16.3-9-16.3-20.2
			v-179c0-11.2,7.3-20.2,16.3-20.2l0,0c9,0,16.3,9,16.3,20.2v179C550.3,673.1,543,682.1,534,682.1z"/>
	</g>
</g>
<g>
	<path d="M108.6,120.2c3.7,1.7,6.5,4,8.5,7.1c2,3.1,3,6.7,3,10.9c0,4.2-1,7.8-3,10.9c-2,3.1-4.8,5.5-8.5,7.1
		c-3.7,1.6-8.1,2.5-13.1,2.5H84.1v15.6H71v-56.6h24.5C100.5,117.7,104.9,118.6,108.6,120.2z M103.8,145.5c2-1.7,3.1-4.1,3.1-7.2
		c0-3.2-1-5.6-3.1-7.3c-2.1-1.7-5-2.5-9-2.5H84.1v19.7h10.7C98.7,148.1,101.7,147.2,103.8,145.5z"/>
	<path d="M163.9,162.2h-26.3l-5,12.1h-13.4l25.2-56.6h12.9l25.3,56.6h-13.8L163.9,162.2z M159.8,152.3l-9-21.7l-9,21.7H159.8z"/>
	<path d="M194.2,173.5c-4.2-1.2-7.5-2.8-10.1-4.7l4.5-9.9c2.4,1.8,5.3,3.2,8.7,4.3c3.3,1.1,6.7,1.6,10,1.6c3.7,0,6.5-0.6,8.3-1.7
		c1.8-1.1,2.7-2.6,2.7-4.4c0-1.3-0.5-2.5-1.6-3.4c-1.1-0.9-2.4-1.6-4-2.1c-1.6-0.5-3.9-1.1-6.7-1.8c-4.3-1-7.8-2-10.6-3.1
		c-2.8-1-5.1-2.7-7.1-4.9c-2-2.3-3-5.3-3-9.1c0-3.3,0.9-6.3,2.7-8.9c1.8-2.7,4.5-4.8,8.1-6.4c3.6-1.6,8-2.3,13.1-2.3
		c3.6,0,7.1,0.4,10.6,1.3c3.5,0.9,6.5,2.1,9.1,3.7l-4,10c-5.2-3-10.5-4.5-15.7-4.5c-3.7,0-6.4,0.6-8.1,1.8c-1.8,1.2-2.6,2.8-2.6,4.7
		c0,1.9,1,3.4,3,4.3c2,0.9,5.1,1.9,9.3,2.8c4.3,1,7.8,2.1,10.6,3.1c2.8,1,5.1,2.6,7.1,4.9c2,2.2,3,5.2,3,9c0,3.2-0.9,6.2-2.7,8.9
		c-1.8,2.7-4.5,4.8-8.1,6.4c-3.6,1.6-8,2.3-13.2,2.3C202.7,175.3,198.4,174.7,194.2,173.5z"/>
	<path d="M251.1,128.4H233v-10.7h49.4v10.7h-18.1v46h-13.1V128.4z"/>
	<path d="M397.9,117.7l-18.5,56.6h-14.1L352.8,136L340,174.4h-14l-18.6-56.6H321l12.8,39.8l13.4-39.8h12.1l12.9,40.1l13.2-40.1
		H397.9z"/>
	<path d="M449,163.9v10.5h-43.9v-56.6H448v10.5h-29.8v12.3h26.3v10.2h-26.3v13.1H449z"/>
	<path d="M503.3,163.9v10.5h-43.9v-56.6h42.8v10.5h-29.8v12.3h26.3v10.2h-26.3v13.1H503.3z"/>
	<path d="M534.4,152.1l-7.6,7.9v14.3h-13v-56.6h13v26.5l25.1-26.5h14.6L543,143l24.8,31.4h-15.3L534.4,152.1z"/>
	<path d="M178.3,259.3H152l-5,12.1h-13.4l25.2-56.6h12.9l25.3,56.6h-13.8L178.3,259.3z M174.2,249.4l-9-21.7l-9,21.7H174.2z"/>
	<path d="M213.7,268.7c-4.7-2.5-8.3-6-11-10.4s-4-9.5-4-15.1c0-5.6,1.3-10.6,4-15.1s6.3-7.9,11-10.4c4.7-2.5,9.9-3.8,15.7-3.8
		c4.9,0,9.3,0.9,13.3,2.6c4,1.7,7.3,4.2,10,7.4l-8.4,7.8c-3.8-4.4-8.6-6.6-14.2-6.6c-3.5,0-6.6,0.8-9.4,2.3
		c-2.8,1.5-4.9,3.7-6.4,6.4c-1.5,2.8-2.3,5.9-2.3,9.4c0,3.5,0.8,6.6,2.3,9.4c1.5,2.8,3.7,4.9,6.4,6.4c2.8,1.5,5.9,2.3,9.4,2.3
		c5.7,0,10.4-2.2,14.2-6.7l8.4,7.8c-2.7,3.3-6,5.8-10,7.5c-4,1.7-8.4,2.6-13.4,2.6C223.5,272.4,218.3,271.2,213.7,268.7z"/>
	<path d="M272.7,225.5h-18.1v-10.7h49.4v10.7h-18.1v46h-13.1V225.5z"/>
	<path d="M311,214.8h13.1v56.6H311V214.8z"/>
	<path d="M391.6,214.8l-24.5,56.6h-12.9l-24.4-56.6h14.2l17.2,40.5l17.5-40.5H391.6z"/>
	<path d="M396.3,214.8h13.1v56.6h-13.1V214.8z"/>
	<path d="M434.6,225.5h-18.1v-10.7h49.4v10.7h-18.1v46h-13.1V225.5z"/>
	<path d="M499,251.4v20.1h-13.1v-20.2L464,214.8h13.9L493,240l15.1-25.2H521L499,251.4z"/>
</g>
<g>
	<path class="st5" d="M182.3,898.5h-11.5v-6.8h31.4v6.8h-11.5v29.2h-8.3V898.5z"/>
	<path class="st5" d="M239.6,891.7v36h-8.3V913h-16.3v14.8h-8.3v-36h8.3v14.2h16.3v-14.2H239.6z"/>
	<path class="st5" d="M248.1,891.7h8.3v36h-8.3V891.7z"/>
	<path class="st5" d="M268.6,927.2c-2.7-0.8-4.8-1.8-6.4-3l2.8-6.3c1.5,1.1,3.4,2,5.5,2.7c2.1,0.7,4.2,1,6.4,1
		c2.4,0,4.1-0.4,5.2-1.1c1.1-0.7,1.7-1.6,1.7-2.8c0-0.9-0.3-1.6-1-2.1c-0.7-0.6-1.5-1-2.6-1.4c-1-0.3-2.5-0.7-4.2-1.1
		c-2.7-0.7-5-1.3-6.7-2c-1.7-0.7-3.2-1.7-4.5-3.1c-1.3-1.4-1.9-3.4-1.9-5.8c0-2.1,0.6-4,1.7-5.7s2.8-3,5.1-4c2.3-1,5.1-1.5,8.4-1.5
		c2.3,0,4.5,0.3,6.7,0.8c2.2,0.5,4.1,1.3,5.8,2.4l-2.6,6.3c-3.3-1.9-6.6-2.8-10-2.8c-2.3,0-4.1,0.4-5.2,1.1c-1.1,0.8-1.7,1.7-1.7,3
		s0.6,2.2,1.9,2.8c1.3,0.6,3.2,1.2,5.9,1.8c2.7,0.7,5,1.3,6.7,2c1.7,0.7,3.2,1.7,4.5,3.1c1.3,1.4,1.9,3.3,1.9,5.7
		c0,2.1-0.6,3.9-1.7,5.6c-1.1,1.7-2.9,3-5.2,4c-2.3,1-5.1,1.5-8.4,1.5C274,928.3,271.2,927.9,268.6,927.2z"/>
	<path class="st5" d="M366.7,891.7l-11.8,36H346l-7.9-24.4l-8.2,24.4H321l-11.8-36h8.6L326,917l8.5-25.3h7.7l8.2,25.5l8.4-25.5
		H366.7z"/>
	<path class="st5" d="M399.2,921v6.7h-27.9v-36h27.2v6.7h-18.9v7.8h16.7v6.5h-16.7v8.3H399.2z"/>
	<path class="st5" d="M433.7,921v6.7h-27.9v-36H433v6.7h-18.9v7.8h16.7v6.5h-16.7v8.3H433.7z"/>
	<path class="st5" d="M453.4,913.6l-4.8,5v9.1h-8.3v-36h8.3v16.8l15.9-16.8h9.3l-14.9,16l15.8,19.9h-9.7L453.4,913.6z"/>
</g>
<g>
	<path d="M244.2,773.1V786l-31.9,73h-21.6l30.8-69.7H193v14h-17.7v-30.2H244.2z"/>
	<path d="M307.2,812.6c5.8,4.8,8.7,11.3,8.7,19.4c0,5.2-1.3,10-3.9,14.3c-2.6,4.3-6.6,7.7-12,10.3c-5.4,2.6-12,3.9-19.8,3.9
		c-6.1,0-12-0.8-17.9-2.4c-5.9-1.6-10.8-3.9-14.9-6.8l7.9-15.2c3.3,2.5,7,4.4,11.3,5.7c4.3,1.3,8.6,2,13.1,2c5,0,8.9-1,11.8-2.9
		c2.9-2,4.3-4.7,4.3-8.2c0-3.7-1.5-6.5-4.5-8.3c-3-1.9-8.2-2.8-15.5-2.8h-22l4.4-48.4h52.4v16h-35.8l-1.4,16.3h7
		C292.5,805.4,301.4,807.8,307.2,812.6z"/>
	<path d="M389.7,773.1V786l-31.9,73h-21.6l30.8-69.7h-28.5v14h-17.7v-30.2H389.7z"/>
	<path d="M413.9,855.2c-5.6-3.5-9.9-8.6-13.1-15.3c-3.2-6.7-4.7-14.6-4.7-23.9c0-9.2,1.6-17.2,4.7-23.9c3.1-6.7,7.5-11.8,13.1-15.3
		c5.6-3.5,11.9-5.3,19-5.3c7.1,0,13.5,1.8,19,5.3c5.6,3.5,9.9,8.6,13.1,15.3c3.1,6.7,4.7,14.6,4.7,23.9c0,9.2-1.6,17.2-4.7,23.9
		c-3.2,6.7-7.5,11.8-13.1,15.3c-5.6,3.5-11.9,5.3-19,5.3C425.8,860.5,419.5,858.7,413.9,855.2z M445.3,836.9
		c3-4.5,4.5-11.5,4.5-20.9c0-9.4-1.5-16.4-4.5-20.9c-3-4.5-7.1-6.8-12.3-6.8c-5.2,0-9.2,2.3-12.2,6.8c-3,4.5-4.5,11.5-4.5,20.9
		c0,9.4,1.5,16.4,4.5,20.9c3,4.5,7.1,6.8,12.2,6.8C438.2,843.7,442.3,841.4,445.3,836.9z"/>
</g>
</svg>
