<?xml version="1.0" encoding="utf-8"?>
<!-- Generator: Adobe Illustrator 26.5.0, SVG Export Plug-In . SVG Version: 6.00 Build 0)  -->
<svg version="1.1" id="Layer_1" xmlns="http://www.w3.org/2000/svg" xmlns:xlink="http://www.w3.org/1999/xlink" x="0px" y="0px"
	 viewBox="0 0 645.4 1006.3" style="enable-background:new 0 0 645.4 1006.3;" xml:space="preserve">
<style type="text/css">
	.st0{fill:#FFFFFF;}
	.st1{fill:none;stroke:#293682;stroke-width:100;stroke-miterlimit:10;}
	.st2{fill:none;stroke:#CFC9CD;stroke-width:100;stroke-miterlimit:10;}
	.st3{fill:none;stroke:#8CC755;stroke-width:100;stroke-miterlimit:10;}
	.st4{fill:none;stroke:#D23F27;stroke-width:100;stroke-miterlimit:10;}
	.st5{fill:none;stroke:#7A437D;stroke-width:100;stroke-miterlimit:10;}
	.st6{fill:none;stroke:#FFCA47;stroke-width:100;stroke-miterlimit:10;}
	.st7{fill:#231F20;}
	.st8{fill:#8B8486;}
	.st9{fill:#293682;}
	.st10{fill:#FFCB46;}
	.st11{fill:#7A437D;}
	.st12{fill:#87C661;}
	.st13{fill:#D54E2B;}
	.st14{fill:#CACCC7;}
</style>
<g>
	<g>
		
			<image style="overflow:visible;opacity:0.75;" width="653" height="1014" xlink:href="BF9E5D2E.png"  transform="matrix(1 0 0 1 -3 -2.7)">
		</image>
		<g>
			<path class="st0" d="M577.6,1006.7H67.8c-37.5,0-67.9-30.4-67.9-67.9V67.4C0,29.9,30.4-0.4,67.8-0.4h509.7
				c37.5,0,67.9,30.4,67.9,67.9v871.5C645.4,976.4,615,1006.7,577.6,1006.7z"/>
		</g>
	</g>
	<g>
		<g>
			
				<ellipse transform="matrix(0.7071 -0.7071 0.7071 0.7071 -260.2422 375.1295)" class="st1" cx="322.7" cy="501.7" rx="186.1" ry="186.1"/>
			<path class="st2" d="M313.7,315.5c5.6-0.3,11.2-0.3,16.8,0"/>
			<path class="st3" d="M290.9,318c4.3-0.7,8.6-1.3,12.9-1.7"/>
			<path class="st4" d="M303.8,316.2c3.3-0.3,6.6-0.5,9.9-0.7"/>
			<path class="st5" d="M251.5,329.3c12.5-5.2,25.7-9,39.4-11.3"/>
			<path class="st6" d="M146.7,440.1c18.2-52.2,57.4-91.2,104.8-110.8"/>
		</g>
		<g>
			<path class="st7" d="M122.2,81.5v6H95.5v-6H122.2z M112.3,81.5v39.1h-7.1V81.5H112.3z"/>
			<path class="st7" d="M127.1,81.5h12.2c2.6,0,4.8,0.4,6.6,1.3c1.8,0.9,3.2,2.2,4.2,4s1.4,3.9,1.4,6.5c0,2-0.3,3.8-0.9,5.3
				c-0.6,1.5-1.4,2.7-2.5,3.7c-1.1,1-2.4,1.8-3.9,2.3l-2.2,1.2H132l0-6h7.1c1.2,0,2.1-0.3,2.9-0.8s1.4-1.2,1.7-2.2
				c0.4-0.9,0.6-2,0.6-3.2c0-1.3-0.2-2.4-0.5-3.4c-0.3-0.9-0.9-1.7-1.6-2.2c-0.7-0.5-1.7-0.8-2.9-0.8h-5v33.1h-7.2V81.5z
				 M145.1,120.6l-7.3-17.5h7.5l7.5,17.1v0.4H145.1z"/>
			<path class="st7" d="M171,87.7l-8.9,32.9h-7.6l12.3-39.1h4.7L171,87.7z M178.3,106.1v6h-17.9v-6H178.3z M178.1,120.6l-8.9-32.9
				l-0.6-6.2h4.8l12.4,39.1H178.1z"/>
			<path class="st7" d="M197,81.5v39.1h-7.2V81.5H197z M211.1,81.5v6h-15.9v-6H211.1z M209.5,98.4v6h-14.2v-6H209.5z"/>
			<path class="st7" d="M223.2,81.5v39.1H216V81.5H223.2z M237.4,81.5v6h-15.9v-6H237.4z M235.7,98.4v6h-14.2v-6H235.7z"/>
			<path class="st7" d="M249.7,81.5v39.1h-7.1V81.5H249.7z"/>
			<path class="st7" d="M275.8,107.7h7.2c-0.1,2.9-0.7,5.3-1.8,7.3s-2.5,3.5-4.5,4.6c-1.9,1-4.3,1.6-7.1,1.6c-2.1,0-4-0.4-5.7-1.1
				c-1.7-0.7-3.1-1.8-4.2-3.2s-2-3.2-2.6-5.2c-0.6-2.1-0.9-4.4-0.9-7.1v-6.8c0-2.7,0.3-5,0.9-7.1c0.6-2.1,1.5-3.8,2.7-5.3
				c1.2-1.4,2.6-2.5,4.3-3.3c1.7-0.7,3.6-1.1,5.7-1.1c2.8,0,5.1,0.5,7,1.6c1.9,1.1,3.3,2.6,4.4,4.6c1,2,1.6,4.5,1.8,7.4h-7.2
				c-0.1-1.9-0.3-3.4-0.7-4.5c-0.4-1.1-1-1.9-1.9-2.4c-0.8-0.5-2-0.7-3.4-0.7c-1.1,0-2.1,0.2-2.9,0.6c-0.8,0.4-1.5,1.1-2,1.9
				c-0.5,0.9-0.9,2-1.2,3.3c-0.3,1.3-0.4,3-0.4,4.8v6.9c0,1.8,0.1,3.4,0.3,4.7c0.2,1.3,0.6,2.5,1,3.3c0.5,0.9,1.1,1.5,1.9,2
				c0.8,0.4,1.8,0.7,3,0.7c1.5,0,2.6-0.2,3.5-0.7c0.9-0.4,1.5-1.2,1.9-2.3C275.4,111.2,275.7,109.7,275.8,107.7z"/>
			<path class="st7" d="M313.8,103.3h-8l0-5.3h7c1.1,0,2-0.2,2.7-0.6s1.3-1,1.6-1.8c0.4-0.8,0.6-1.7,0.6-2.8c0-1.3-0.2-2.3-0.5-3
				c-0.3-0.8-0.9-1.3-1.6-1.7c-0.7-0.4-1.6-0.5-2.8-0.5h-4.6v33.1h-7.2V81.5h11.8c1.9,0,3.6,0.2,5.1,0.6c1.5,0.4,2.7,1.1,3.8,1.9
				c1,0.9,1.8,2,2.4,3.3c0.5,1.3,0.8,2.9,0.8,4.7c0,1.6-0.3,3.1-1,4.4c-0.7,1.3-1.7,2.4-3,3.3c-1.4,0.9-3.1,1.4-5.1,1.5L313.8,103.3
				z M313.5,120.6h-9.9l3.1-6h6.9c1.1,0,2-0.2,2.7-0.7s1.2-1.1,1.5-1.9c0.3-0.8,0.5-1.8,0.5-2.9c0-1.2-0.1-2.2-0.4-3.1
				c-0.3-0.9-0.8-1.6-1.4-2c-0.7-0.5-1.5-0.7-2.6-0.7h-6.7l0.1-5.3h8.3l1.7,2.1c2,0,3.6,0.4,4.8,1.3c1.2,0.9,2.1,2,2.7,3.4
				c0.6,1.4,0.8,2.9,0.8,4.4c0,2.5-0.5,4.6-1.4,6.3c-0.9,1.7-2.3,3-4.1,3.9C318.2,120.2,316.1,120.6,313.5,120.6z"/>
			<path class="st7" d="M335.1,81.5l6.4,18.1l6.4-18.1h7.9l-10.7,24.8v14.3h-7.3v-14.3l-10.7-24.8H335.1z"/>
			<path class="st7" d="M389.1,110.5c0-0.8-0.1-1.5-0.2-2.1c-0.2-0.6-0.4-1.2-0.9-1.7c-0.4-0.5-1-1-1.9-1.5s-1.8-1-3.1-1.5
				c-1.5-0.6-2.9-1.3-4.3-1.9c-1.3-0.7-2.5-1.5-3.6-2.4s-1.9-2-2.5-3.2c-0.6-1.2-0.9-2.7-0.9-4.3c0-1.6,0.3-3.1,0.9-4.4
				c0.6-1.3,1.4-2.5,2.5-3.4s2.4-1.7,3.8-2.2c1.5-0.5,3.1-0.8,4.9-0.8c2.5,0,4.7,0.5,6.5,1.6c1.8,1.1,3.2,2.5,4.2,4.3
				c1,1.8,1.5,3.9,1.5,6.1h-7.2c0-1.2-0.2-2.2-0.5-3.2c-0.3-0.9-0.9-1.6-1.7-2.2s-1.7-0.8-2.9-0.8c-1.1,0-2,0.2-2.7,0.7
				c-0.7,0.4-1.2,1-1.6,1.8c-0.3,0.7-0.5,1.6-0.5,2.5c0,0.7,0.2,1.3,0.5,1.8c0.3,0.5,0.7,1,1.3,1.5c0.6,0.4,1.2,0.9,2,1.3
				s1.7,0.8,2.7,1.2c1.8,0.7,3.4,1.4,4.8,2.2s2.5,1.7,3.4,2.7s1.6,2.2,2,3.4c0.4,1.3,0.7,2.7,0.7,4.4c0,1.6-0.3,3.1-0.8,4.4
				c-0.6,1.3-1.4,2.5-2.4,3.4s-2.3,1.7-3.8,2.2s-3.2,0.8-5,0.8c-1.8,0-3.4-0.3-5-0.8s-3-1.3-4.2-2.3c-1.2-1-2.2-2.4-2.9-3.9
				s-1-3.5-1-5.6h7.2c0,1.2,0.1,2.2,0.4,3.1c0.3,0.9,0.7,1.6,1.2,2.1c0.5,0.5,1.2,0.9,1.9,1.2c0.8,0.2,1.6,0.4,2.6,0.4
				c1.1,0,2-0.2,2.7-0.6c0.7-0.4,1.2-1,1.5-1.7C388.9,112.2,389.1,111.4,389.1,110.5z"/>
			<path class="st7" d="M428.8,98v6.6c0,2.8-0.3,5.2-1,7.3c-0.6,2.1-1.6,3.8-2.8,5.2c-1.2,1.4-2.7,2.4-4.4,3.1c-1.7,0.7-3.6,1-5.6,1
				c-2.1,0-4-0.3-5.7-1c-1.7-0.7-3.2-1.7-4.4-3.1c-1.2-1.4-2.2-3.1-2.8-5.2c-0.7-2.1-1-4.5-1-7.3V98c0-2.8,0.3-5.3,1-7.4
				c0.7-2.1,1.6-3.9,2.8-5.3c1.2-1.4,2.7-2.5,4.4-3.2s3.6-1.1,5.6-1.1c2.1,0,4,0.4,5.7,1.1s3.2,1.8,4.4,3.2c1.2,1.4,2.2,3.2,2.8,5.3
				C428.5,92.7,428.8,95.1,428.8,98z M421.7,104.5v-6.6c0-1.9-0.1-3.6-0.4-4.9c-0.3-1.4-0.7-2.5-1.3-3.4c-0.6-0.9-1.3-1.5-2.1-1.9
				s-1.8-0.6-2.9-0.6c-1.1,0-2.1,0.2-2.9,0.6s-1.5,1.1-2.1,1.9c-0.6,0.9-1,2-1.3,3.4c-0.3,1.4-0.4,3-0.4,4.9v6.6
				c0,1.9,0.1,3.5,0.4,4.8c0.3,1.3,0.7,2.4,1.3,3.3c0.6,0.8,1.3,1.5,2.1,1.9c0.8,0.4,1.8,0.6,2.9,0.6c1.1,0,2-0.2,2.9-0.6
				c0.8-0.4,1.5-1,2.1-1.9c0.6-0.8,1-1.9,1.3-3.3C421.5,108,421.7,106.4,421.7,104.5z"/>
			<path class="st7" d="M452.8,81.5h7.2v27c0,3-0.6,5.4-1.7,7.3s-2.6,3.2-4.5,4.1c-1.9,0.9-4.1,1.3-6.5,1.3c-2.5,0-4.6-0.4-6.6-1.3
				c-1.9-0.9-3.4-2.2-4.5-4.1c-1.1-1.9-1.6-4.3-1.6-7.3v-27h7.2v27c0,1.8,0.2,3.1,0.7,4.1c0.4,1,1.1,1.6,1.9,2
				c0.8,0.4,1.8,0.5,3,0.5c1.2,0,2.2-0.2,3-0.5c0.8-0.4,1.4-1,1.9-2c0.4-1,0.6-2.3,0.6-4.1V81.5z"/>
			<path class="st7" d="M466.3,81.5h12.2c2.6,0,4.8,0.4,6.6,1.3c1.8,0.9,3.2,2.2,4.2,4s1.4,3.9,1.4,6.5c0,2-0.3,3.8-0.9,5.3
				c-0.6,1.5-1.4,2.7-2.5,3.7c-1.1,1-2.4,1.8-3.9,2.3l-2.2,1.2h-10.1l0-6h7.1c1.2,0,2.1-0.3,2.9-0.8s1.4-1.2,1.7-2.2
				c0.4-0.9,0.6-2,0.6-3.2c0-1.3-0.2-2.4-0.5-3.4c-0.3-0.9-0.9-1.7-1.6-2.2c-0.7-0.5-1.7-0.8-2.9-0.8h-5v33.1h-7.2V81.5z
				 M484.3,120.6l-7.3-17.5h7.5l7.5,17.1v0.4H484.3z"/>
			<path class="st7" d="M515.3,107.7h7.2c-0.1,2.9-0.7,5.3-1.8,7.3c-1,2-2.5,3.5-4.5,4.6c-1.9,1-4.3,1.6-7.1,1.6
				c-2.1,0-4-0.4-5.7-1.1c-1.7-0.7-3.1-1.8-4.2-3.2s-2-3.2-2.6-5.2c-0.6-2.1-0.9-4.4-0.9-7.1v-6.8c0-2.7,0.3-5,0.9-7.1
				c0.6-2.1,1.5-3.8,2.7-5.3s2.6-2.5,4.3-3.3s3.6-1.1,5.7-1.1c2.8,0,5.1,0.5,7,1.6c1.9,1.1,3.3,2.6,4.4,4.6c1,2,1.6,4.5,1.8,7.4
				h-7.2c-0.1-1.9-0.3-3.4-0.7-4.5c-0.4-1.1-1-1.9-1.9-2.4c-0.8-0.5-2-0.7-3.4-0.7c-1.1,0-2.1,0.2-2.9,0.6c-0.8,0.4-1.5,1.1-2,1.9
				c-0.5,0.9-0.9,2-1.2,3.3c-0.3,1.3-0.4,3-0.4,4.8v6.9c0,1.8,0.1,3.4,0.3,4.7c0.2,1.3,0.6,2.5,1,3.3c0.5,0.9,1.1,1.5,1.9,2
				c0.8,0.4,1.8,0.7,3,0.7c1.5,0,2.6-0.2,3.5-0.7c0.9-0.4,1.5-1.2,1.9-2.3S515.2,109.7,515.3,107.7z"/>
			<path class="st7" d="M535,81.5v39.1h-7.2V81.5H535z M549.8,81.5v6h-16.9v-6H549.8z M547.6,97.6v5.8h-14.7v-5.8H547.6z
				 M549.9,114.6v6h-17v-6H549.9z"/>
			<path class="st7" d="M143,171.3v-0.5c0-3.8,0.4-7.3,1.1-10.4s1.7-5.8,2.8-8.2c1.2-2.3,2.4-4.3,3.8-5.8c1.3-1.5,2.6-2.6,3.8-3.3
				l1.3,4c-0.8,0.8-1.6,1.8-2.4,3.1c-0.8,1.3-1.6,2.9-2.2,4.9c-0.7,1.9-1.2,4.2-1.6,6.8c-0.4,2.6-0.6,5.5-0.6,8.9v0.6
				c0,3.3,0.2,6.2,0.6,8.8c0.4,2.6,0.9,4.9,1.6,6.8s1.4,3.6,2.2,4.9c0.8,1.3,1.6,2.4,2.4,3.2l-1.3,3.9c-1.2-0.7-2.5-1.8-3.8-3.3
				c-1.3-1.5-2.6-3.5-3.8-5.8s-2.1-5.1-2.8-8.2C143.4,178.6,143,175.1,143,171.3z"/>
			<path class="st7" d="M179.7,173.8h7.2c-0.1,2.9-0.7,5.3-1.8,7.3s-2.5,3.5-4.5,4.6c-1.9,1-4.3,1.6-7.1,1.6c-2.1,0-4-0.4-5.7-1.1
				c-1.7-0.7-3.1-1.8-4.2-3.2s-2-3.2-2.6-5.2c-0.6-2.1-0.9-4.4-0.9-7.1v-6.8c0-2.7,0.3-5,0.9-7.1c0.6-2.1,1.5-3.8,2.7-5.3
				c1.2-1.4,2.6-2.5,4.3-3.3c1.7-0.7,3.6-1.1,5.7-1.1c2.8,0,5.1,0.5,7,1.6c1.9,1.1,3.3,2.6,4.4,4.6c1,2,1.6,4.5,1.8,7.4h-7.2
				c-0.1-1.9-0.3-3.4-0.7-4.5c-0.4-1.1-1-1.9-1.9-2.4c-0.8-0.5-2-0.7-3.4-0.7c-1.1,0-2.1,0.2-2.9,0.6c-0.8,0.4-1.5,1.1-2,1.9
				c-0.5,0.9-0.9,2-1.2,3.3c-0.3,1.3-0.4,3-0.4,4.8v6.9c0,1.8,0.1,3.4,0.3,4.7c0.2,1.3,0.6,2.5,1,3.3c0.5,0.9,1.1,1.5,1.9,2
				c0.8,0.4,1.8,0.7,3,0.7c1.5,0,2.6-0.2,3.5-0.7c0.9-0.4,1.5-1.2,1.9-2.3C179.3,177.2,179.6,175.7,179.7,173.8z"/>
			<path class="st7" d="M209.9,147.5h7.2v27c0,3-0.6,5.4-1.7,7.3s-2.6,3.2-4.5,4.1c-1.9,0.9-4.1,1.3-6.5,1.3c-2.5,0-4.6-0.4-6.6-1.3
				c-1.9-0.9-3.4-2.2-4.5-4.1c-1.1-1.9-1.6-4.3-1.6-7.3v-27h7.2v27c0,1.8,0.2,3.1,0.7,4.1c0.4,1,1.1,1.6,1.9,2
				c0.8,0.4,1.8,0.5,3,0.5c1.2,0,2.2-0.2,3-0.5c0.8-0.4,1.4-1,1.9-2c0.4-1,0.6-2.3,0.6-4.1V147.5z"/>
			<path class="st7" d="M223.5,147.5h12.2c2.6,0,4.8,0.4,6.6,1.3c1.8,0.9,3.2,2.2,4.2,4s1.4,3.9,1.4,6.5c0,2-0.3,3.8-0.9,5.3
				c-0.6,1.5-1.4,2.7-2.5,3.7c-1.1,1-2.4,1.8-3.9,2.3l-2.2,1.2h-10.1l0-6h7.1c1.2,0,2.1-0.3,2.9-0.8s1.4-1.2,1.7-2.2
				c0.4-0.9,0.6-2,0.6-3.2c0-1.3-0.2-2.4-0.5-3.4c-0.3-0.9-0.9-1.7-1.6-2.2c-0.7-0.5-1.7-0.8-2.9-0.8h-5v33.1h-7.2V147.5z
				 M241.5,186.7l-7.3-17.5h7.5l7.5,17.1v0.4H241.5z"/>
			<path class="st7" d="M253.6,147.5h12.2c2.6,0,4.8,0.4,6.6,1.3c1.8,0.9,3.2,2.2,4.2,4c1,1.8,1.4,3.9,1.4,6.5c0,2-0.3,3.8-0.9,5.3
				s-1.4,2.7-2.5,3.7c-1.1,1-2.4,1.8-3.9,2.3l-2.2,1.2h-10.1l0-6h7.1c1.2,0,2.1-0.3,2.9-0.8c0.8-0.5,1.4-1.2,1.7-2.2
				c0.4-0.9,0.6-2,0.6-3.2c0-1.3-0.2-2.4-0.5-3.4c-0.3-0.9-0.9-1.7-1.6-2.2c-0.7-0.5-1.7-0.8-2.9-0.8h-5v33.1h-7.2V147.5z
				 M271.6,186.7l-7.3-17.5h7.5l7.5,17.1v0.4H271.6z"/>
			<path class="st7" d="M291,147.5v39.1h-7.2v-39.1H291z M305.8,147.5v6h-16.9v-6H305.8z M303.6,163.6v5.8h-14.7v-5.8H303.6z
				 M305.9,180.7v6h-17v-6H305.9z"/>
			<path class="st7" d="M337.8,147.5v39.1h-7l-13.1-25.8v25.8h-6.9v-39.1h6.9l13.2,26v-26H337.8z"/>
			<path class="st7" d="M368.6,147.5v6h-26.7v-6H368.6z M358.8,147.5v39.1h-7.1v-39.1H358.8z"/>
			<path class="st7" d="M389.6,147.5l6.4,18.1l6.4-18.1h7.9l-10.7,24.8v14.3h-7.3v-14.3l-10.7-24.8H389.6z"/>
			<path class="st7" d="M421.5,147.5v39.1h-7.2v-39.1H421.5z M436.3,147.5v6h-16.9v-6H436.3z M434.1,163.6v5.8h-14.7v-5.8H434.1z
				 M436.4,180.7v6h-17v-6H436.4z"/>
			<path class="st7" d="M455.2,153.7l-8.9,32.9h-7.6l12.3-39.1h4.7L455.2,153.7z M462.5,172.1v6h-17.9v-6H462.5z M462.3,186.7
				l-8.9-32.9l-0.6-6.2h4.8l12.4,39.1H462.3z"/>
			<path class="st7" d="M474,147.5h12.2c2.6,0,4.8,0.4,6.6,1.3c1.8,0.9,3.2,2.2,4.2,4c1,1.8,1.4,3.9,1.4,6.5c0,2-0.3,3.8-0.9,5.3
				s-1.4,2.7-2.5,3.7c-1.1,1-2.4,1.8-3.9,2.3L489,172h-10.1l0-6h7.1c1.2,0,2.1-0.3,2.9-0.8c0.8-0.5,1.4-1.2,1.7-2.2
				c0.4-0.9,0.6-2,0.6-3.2c0-1.3-0.2-2.4-0.5-3.4c-0.3-0.9-0.9-1.7-1.6-2.2c-0.7-0.5-1.7-0.8-2.9-0.8h-5v33.1H474V147.5z M492,186.7
				l-7.3-17.5h7.5l7.5,17.1v0.4H492z"/>
			<path class="st7" d="M515.4,170.8v0.5c0,3.7-0.4,7.1-1.1,10.2s-1.7,5.8-2.9,8.2c-1.2,2.4-2.5,4.3-3.9,5.9c-1.4,1.6-2.7,2.7-4,3.4
				l-1.3-3.9c0.8-0.8,1.6-1.8,2.4-3.1c0.8-1.3,1.6-3,2.2-4.9c0.7-2,1.2-4.2,1.6-6.9c0.4-2.6,0.6-5.6,0.6-8.9v-0.6
				c0-3.3-0.2-6.3-0.6-8.9c-0.4-2.6-1-4.9-1.7-6.8s-1.4-3.6-2.3-4.9c-0.8-1.3-1.6-2.4-2.4-3.1l1.3-3.9c1.3,0.7,2.6,1.8,4,3.4
				c1.4,1.6,2.7,3.5,3.9,5.9c1.2,2.4,2.2,5.1,2.9,8.2C515,163.6,515.4,167,515.4,170.8z"/>
		</g>
		<g>
			<g>
				<path class="st8" d="M88.9,798.4v2.4l-7.5,21H77l7.6-19.9h-9.6v-3.4H88.9z"/>
				<path class="st8" d="M94.7,818.4h0.2c1.1,0,2.1-0.2,2.8-0.5c0.8-0.3,1.4-0.8,1.8-1.5c0.5-0.6,0.8-1.4,1-2.3
					c0.2-0.9,0.3-1.9,0.3-3v-4.3c0-0.9-0.1-1.7-0.2-2.3c-0.1-0.7-0.3-1.2-0.6-1.7c-0.2-0.4-0.5-0.8-0.8-1c-0.3-0.2-0.6-0.3-1-0.3
					c-0.4,0-0.8,0.1-1.1,0.4s-0.6,0.6-0.8,1c-0.2,0.4-0.4,0.9-0.5,1.5c-0.1,0.6-0.2,1.2-0.2,1.8s0.1,1.2,0.2,1.8
					c0.1,0.6,0.3,1,0.5,1.5s0.5,0.8,0.8,1s0.7,0.4,1.2,0.4c0.4,0,0.7-0.1,1-0.3s0.6-0.5,0.9-0.9c0.3-0.4,0.5-0.8,0.6-1.2
					c0.2-0.4,0.2-0.9,0.3-1.4l1.4,0.7c0,0.8-0.1,1.5-0.4,2.3c-0.3,0.7-0.6,1.4-1.1,2c-0.5,0.6-1,1.1-1.6,1.5c-0.6,0.4-1.3,0.5-2,0.5
					c-0.9,0-1.8-0.2-2.5-0.6c-0.7-0.4-1.3-1-1.8-1.7c-0.5-0.7-0.8-1.6-1.1-2.5c-0.2-1-0.4-2-0.4-3.1c0-1.1,0.1-2.2,0.4-3.2
					c0.3-1,0.7-1.9,1.3-2.6c0.6-0.8,1.3-1.3,2.1-1.8c0.8-0.4,1.7-0.7,2.8-0.7c1,0,2,0.2,2.8,0.7c0.8,0.5,1.5,1.1,2.1,2s1,1.9,1.3,3
					c0.3,1.2,0.4,2.4,0.4,3.8v1.5c0,1.5-0.1,2.9-0.4,4.2c-0.2,1.3-0.6,2.5-1.1,3.5c-0.5,1.1-1.1,2-1.9,2.8c-0.8,0.8-1.7,1.4-2.8,1.8
					c-1.1,0.4-2.4,0.6-3.8,0.6h-0.3V818.4z"/>
				<path class="st8" d="M108.9,819.7c0-0.7,0.2-1.2,0.7-1.7s1-0.7,1.8-0.7s1.4,0.2,1.8,0.7s0.7,1,0.7,1.7c0,0.7-0.2,1.2-0.7,1.6
					c-0.4,0.4-1,0.7-1.8,0.7s-1.4-0.2-1.8-0.7C109.1,820.9,108.9,820.3,108.9,819.7z"/>
				<path class="st8" d="M131,815.4c0,1.5-0.3,2.7-0.9,3.7c-0.6,1-1.4,1.8-2.3,2.3c-1,0.5-2.1,0.8-3.4,0.8c-1.3,0-2.4-0.3-3.4-0.8
					c-1-0.5-1.8-1.3-2.4-2.3c-0.6-1-0.9-2.2-0.9-3.7c0-1,0.2-1.9,0.5-2.7c0.3-0.8,0.8-1.5,1.4-2c0.6-0.6,1.3-1,2.1-1.3
					c0.8-0.3,1.7-0.5,2.6-0.5c1.3,0,2.4,0.3,3.4,0.8c1,0.5,1.8,1.3,2.4,2.3C130.8,812.9,131,814.1,131,815.4z M130.6,804.6
					c0,1.2-0.3,2.2-0.8,3.1c-0.5,0.9-1.3,1.6-2.2,2.1c-0.9,0.5-2,0.8-3.2,0.8c-1.2,0-2.3-0.3-3.2-0.8c-0.9-0.5-1.7-1.2-2.2-2.1
					c-0.5-0.9-0.8-2-0.8-3.1c0-1.4,0.3-2.6,0.8-3.6s1.3-1.7,2.2-2.2c0.9-0.5,2-0.8,3.2-0.8c1.2,0,2.3,0.3,3.2,0.8
					c0.9,0.5,1.7,1.2,2.2,2.2S130.6,803.2,130.6,804.6z M126.9,815.1c0-0.7-0.1-1.4-0.3-1.9c-0.2-0.5-0.5-1-0.9-1.3
					c-0.4-0.3-0.8-0.4-1.3-0.4c-0.5,0-1,0.1-1.3,0.4c-0.4,0.3-0.6,0.7-0.9,1.3c-0.2,0.5-0.3,1.2-0.3,1.9s0.1,1.4,0.3,1.9
					s0.5,0.9,0.9,1.2c0.4,0.3,0.8,0.4,1.3,0.4s1-0.1,1.3-0.4c0.4-0.3,0.6-0.7,0.8-1.2C126.8,816.5,126.9,815.9,126.9,815.1z
					 M126.5,804.8c0-0.7-0.1-1.2-0.2-1.7c-0.2-0.5-0.4-0.9-0.7-1.1c-0.3-0.3-0.7-0.4-1.1-0.4c-0.4,0-0.8,0.1-1.1,0.4
					s-0.5,0.6-0.7,1.1s-0.2,1.1-0.2,1.8c0,0.7,0.1,1.2,0.2,1.7c0.2,0.5,0.4,0.9,0.7,1.2s0.7,0.4,1.1,0.4c0.4,0,0.8-0.1,1.1-0.4
					c0.3-0.3,0.5-0.7,0.7-1.2C126.4,806,126.5,805.4,126.5,804.8z"/>
				<path class="st8" d="M134.3,804.1v-1.2c0-0.9,0.2-1.7,0.5-2.4c0.3-0.7,0.8-1.3,1.5-1.8c0.6-0.4,1.4-0.7,2.3-0.7
					c1,0,1.8,0.2,2.4,0.7c0.6,0.4,1.1,1,1.4,1.8c0.3,0.7,0.5,1.5,0.5,2.4v1.2c0,0.9-0.2,1.7-0.5,2.4c-0.3,0.7-0.8,1.3-1.4,1.8
					c-0.6,0.4-1.4,0.7-2.4,0.7c-0.9,0-1.7-0.2-2.4-0.7c-0.6-0.4-1.1-1-1.5-1.8C134.5,805.8,134.3,805,134.3,804.1z M137.1,802.9v1.2
					c0,0.4,0.1,0.8,0.2,1.1c0.1,0.4,0.3,0.6,0.5,0.9c0.2,0.2,0.5,0.3,0.9,0.3s0.6-0.1,0.9-0.3s0.4-0.5,0.5-0.9
					c0.1-0.4,0.2-0.7,0.2-1.1v-1.2c0-0.4-0.1-0.8-0.2-1.1s-0.3-0.6-0.5-0.9c-0.2-0.2-0.5-0.3-0.9-0.3c-0.3,0-0.6,0.1-0.9,0.3
					c-0.2,0.2-0.4,0.5-0.5,0.9S137.1,802.5,137.1,802.9z M149,801.8l-9.6,18.3l-2-1.2l9.6-18.3L149,801.8z M143.6,817.3v-1.2
					c0-0.9,0.2-1.7,0.5-2.4c0.3-0.7,0.8-1.3,1.5-1.8c0.6-0.4,1.4-0.7,2.3-0.7c1,0,1.7,0.2,2.4,0.7c0.6,0.4,1.1,1,1.4,1.8
					c0.3,0.7,0.5,1.5,0.5,2.4v1.2c0,0.9-0.2,1.7-0.5,2.4c-0.3,0.7-0.8,1.3-1.4,1.8c-0.6,0.4-1.4,0.7-2.4,0.7c-0.9,0-1.7-0.2-2.4-0.7
					c-0.7-0.4-1.1-1-1.5-1.8C143.8,819,143.6,818.2,143.6,817.3z M146.3,816.1v1.2c0,0.4,0.1,0.8,0.2,1.1c0.1,0.4,0.3,0.6,0.6,0.9
					s0.5,0.3,0.8,0.3c0.4,0,0.7-0.1,0.9-0.3s0.4-0.5,0.5-0.9c0.1-0.3,0.1-0.7,0.1-1.1v-1.2c0-0.4-0.1-0.8-0.2-1.1
					c-0.1-0.4-0.3-0.6-0.5-0.9s-0.5-0.3-0.9-0.3c-0.3,0-0.6,0.1-0.9,0.3c-0.2,0.2-0.4,0.5-0.5,0.9
					C146.4,815.3,146.3,815.6,146.3,816.1z"/>
				<path class="st8" d="M179.4,808.2v3.9c0,1.6-0.2,3.1-0.6,4.3c-0.4,1.2-0.9,2.3-1.7,3.1c-0.7,0.8-1.6,1.5-2.6,1.9
					c-1,0.4-2.1,0.6-3.4,0.6c-1.2,0-2.4-0.2-3.4-0.6c-1-0.4-1.9-1-2.6-1.9c-0.7-0.8-1.3-1.9-1.7-3.1c-0.4-1.2-0.6-2.7-0.6-4.3v-3.9
					c0-1.7,0.2-3.2,0.6-4.4c0.4-1.3,1-2.3,1.7-3.2s1.6-1.5,2.6-1.9s2.1-0.7,3.4-0.7c1.2,0,2.4,0.2,3.4,0.7c1,0.4,1.9,1.1,2.6,1.9
					c0.7,0.8,1.3,1.9,1.7,3.2C179.2,805.1,179.4,806.6,179.4,808.2z M175.1,812.2v-4c0-1.1-0.1-2.1-0.3-3c-0.2-0.8-0.4-1.5-0.8-2
					c-0.3-0.5-0.8-0.9-1.3-1.1c-0.5-0.2-1.1-0.4-1.7-0.4c-0.7,0-1.2,0.1-1.7,0.4c-0.5,0.2-0.9,0.6-1.3,1.1c-0.3,0.5-0.6,1.2-0.8,2
					s-0.3,1.8-0.3,3v4c0,1.1,0.1,2.1,0.3,2.9s0.4,1.5,0.8,2s0.8,0.9,1.3,1.1c0.5,0.2,1.1,0.4,1.7,0.4c0.6,0,1.2-0.1,1.7-0.4
					c0.5-0.2,0.9-0.6,1.3-1.1s0.6-1.2,0.8-2C175.1,814.3,175.1,813.3,175.1,812.2z"/>
				<path class="st8" d="M187,808v13.8h-4.1v-17.4h3.9L187,808z M191.1,804.3l0,4.1c-0.2,0-0.5-0.1-0.7-0.1c-0.3,0-0.5,0-0.7,0
					c-0.5,0-0.9,0.1-1.3,0.3c-0.4,0.2-0.7,0.4-0.9,0.7s-0.4,0.7-0.6,1.2c-0.1,0.5-0.2,1-0.2,1.6l-0.8-0.1c0-1.1,0.1-2.1,0.3-3.1
					c0.2-0.9,0.4-1.8,0.8-2.5c0.3-0.7,0.8-1.2,1.3-1.6c0.5-0.4,1.1-0.6,1.8-0.6c0.2,0,0.4,0,0.7,0.1
					C190.8,804.2,191,804.2,191.1,804.3z"/>
				<path class="st8" d="M192.7,813.8v-1.3c0-1.4,0.1-2.7,0.4-3.7c0.3-1.1,0.6-1.9,1.2-2.6c0.5-0.7,1.1-1.2,1.9-1.6
					c0.7-0.3,1.5-0.5,2.5-0.5c0.9,0,1.7,0.2,2.4,0.6c0.6,0.4,1.2,1,1.6,1.7c0.4,0.7,0.7,1.6,0.9,2.6c0.2,1,0.4,2.1,0.5,3.3v1.8
					c-0.1,1.1-0.3,2.2-0.6,3.2c-0.3,1-0.6,1.8-1,2.6c-0.4,0.7-1,1.3-1.6,1.7s-1.4,0.6-2.3,0.6c-0.9,0-1.7-0.2-2.4-0.5
					c-0.7-0.4-1.3-0.9-1.8-1.6c-0.5-0.7-0.9-1.6-1.2-2.6C192.8,816.3,192.7,815.1,192.7,813.8z M202.4,804.4h3.7v17.4
					c0,1.6-0.3,2.9-0.9,3.9s-1.4,1.7-2.4,2.2s-2.3,0.7-3.7,0.7c-0.5,0-1.1-0.1-1.8-0.2c-0.7-0.2-1.3-0.4-2-0.7
					c-0.6-0.3-1.2-0.7-1.6-1.1l1.4-2.9c0.5,0.5,1,0.8,1.7,1.1c0.7,0.3,1.3,0.4,2,0.4c0.7,0,1.2-0.1,1.7-0.3c0.5-0.2,0.8-0.6,1-1.1
					s0.4-1.2,0.4-2v-13.5L202.4,804.4z M196.8,812.5v1.3c0,0.8,0.1,1.6,0.2,2.2s0.3,1.1,0.5,1.5s0.5,0.7,0.9,0.9
					c0.4,0.2,0.8,0.3,1.3,0.3c0.7,0,1.2-0.2,1.7-0.5c0.4-0.3,0.7-0.8,0.9-1.3c0.2-0.6,0.4-1.2,0.4-1.9v-3.4c0-0.6-0.1-1.1-0.3-1.6
					s-0.3-0.9-0.6-1.2c-0.2-0.3-0.5-0.6-0.9-0.8c-0.4-0.2-0.8-0.3-1.3-0.3c-0.5,0-0.9,0.1-1.3,0.3s-0.7,0.5-0.9,0.9
					c-0.2,0.4-0.4,0.9-0.5,1.5C196.8,810.9,196.8,811.7,196.8,812.5z"/>
				<path class="st8" d="M218.1,811.2l0,2.6h-1.7c-0.5,0-0.9,0.1-1.3,0.2c-0.4,0.1-0.7,0.3-0.9,0.6s-0.4,0.6-0.6,0.9
					c-0.1,0.4-0.2,0.7-0.2,1.2c0,0.5,0.1,0.9,0.2,1.2c0.1,0.3,0.3,0.6,0.6,0.7c0.3,0.2,0.6,0.2,1,0.2c0.5,0,1-0.1,1.4-0.4
					c0.4-0.2,0.7-0.5,0.9-0.8c0.2-0.3,0.3-0.6,0.2-0.9l0.9,1.7c-0.1,0.4-0.3,0.8-0.5,1.3c-0.2,0.4-0.5,0.9-0.9,1.2
					c-0.3,0.4-0.8,0.7-1.3,0.9c-0.5,0.2-1.1,0.4-1.8,0.4c-1,0-1.8-0.2-2.6-0.6c-0.8-0.4-1.4-1-1.8-1.8c-0.4-0.8-0.7-1.7-0.7-2.8
					c0-0.9,0.1-1.7,0.4-2.4s0.7-1.3,1.3-1.8c0.6-0.5,1.3-0.9,2.1-1.2c0.9-0.3,1.9-0.4,3-0.4H218.1z M217.5,818v-8.3
					c0-0.6-0.1-1-0.2-1.3c-0.1-0.3-0.4-0.6-0.6-0.7s-0.6-0.2-1-0.2c-0.4,0-0.8,0.1-1.1,0.3c-0.3,0.2-0.5,0.4-0.7,0.8
					c-0.1,0.3-0.2,0.7-0.2,1.1h-4.1c0-0.7,0.1-1.4,0.4-2.1c0.3-0.7,0.7-1.2,1.3-1.7c0.5-0.5,1.2-0.9,2-1.2s1.6-0.4,2.6-0.4
					c1.1,0,2.1,0.2,3,0.6s1.6,1,2.1,1.8c0.5,0.8,0.8,1.9,0.8,3.3v7.9c0,0.9,0.1,1.6,0.2,2.3s0.3,1.2,0.5,1.6v0.3h-4.2
					c-0.2-0.4-0.3-1-0.4-1.7C217.6,819.4,217.5,818.7,217.5,818z"/>
				<path class="st8" d="M229.3,808.1v13.7h-4.1v-17.4h3.9L229.3,808.1z M228.6,812.5l-1.2,0c0-1.3,0.1-2.4,0.4-3.5
					c0.3-1,0.7-1.9,1.2-2.7c0.5-0.7,1.1-1.3,1.8-1.7c0.7-0.4,1.5-0.6,2.4-0.6c0.7,0,1.3,0.1,1.9,0.4c0.6,0.2,1,0.6,1.5,1.1
					c0.4,0.5,0.7,1.2,0.9,2s0.3,1.9,0.3,3.1v11.1h-4.1v-11.2c0-0.8-0.1-1.4-0.2-1.8s-0.4-0.8-0.7-0.9s-0.7-0.3-1.2-0.3
					c-0.5,0-0.9,0.1-1.2,0.4c-0.4,0.3-0.7,0.6-0.9,1.1c-0.3,0.5-0.4,1-0.6,1.6C228.7,811.2,228.6,811.8,228.6,812.5z"/>
				<path class="st8" d="M241.4,799.9c0-0.7,0.2-1.2,0.6-1.6c0.4-0.4,1-0.6,1.7-0.6c0.7,0,1.3,0.2,1.7,0.6c0.4,0.4,0.6,1,0.6,1.6
					c0,0.6-0.2,1.2-0.6,1.6c-0.4,0.4-0.9,0.6-1.7,0.6c-0.7,0-1.3-0.2-1.7-0.6C241.6,801.1,241.4,800.5,241.4,799.9z M245.7,804.4
					v17.4h-4.1v-17.4H245.7z"/>
				<path class="st8" d="M255.7,818.7c0.5,0,0.8-0.1,1.2-0.3s0.6-0.5,0.8-0.9c0.2-0.4,0.3-0.9,0.3-1.6h3.9c0,1.3-0.3,2.4-0.8,3.3
					c-0.6,0.9-1.3,1.6-2.2,2.2c-0.9,0.5-1.9,0.8-3.1,0.8c-1.2,0-2.2-0.2-3-0.6c-0.9-0.4-1.6-0.9-2.1-1.6c-0.6-0.7-1-1.6-1.3-2.6
					c-0.3-1-0.4-2.2-0.4-3.5v-1.4c0-1.3,0.1-2.5,0.4-3.5c0.3-1,0.7-1.9,1.3-2.6c0.6-0.7,1.3-1.3,2.1-1.6c0.9-0.4,1.9-0.6,3-0.6
					c1.2,0,2.3,0.3,3.2,0.8c0.9,0.5,1.6,1.3,2.1,2.3c0.5,1,0.8,2.2,0.8,3.7H258c0-0.7-0.1-1.3-0.3-1.8c-0.2-0.5-0.4-0.8-0.8-1.1
					s-0.8-0.4-1.3-0.4c-0.6,0-1,0.1-1.4,0.3c-0.3,0.2-0.6,0.5-0.8,1c-0.2,0.4-0.3,0.9-0.4,1.5c-0.1,0.6-0.1,1.3-0.1,2.1v1.4
					c0,0.8,0,1.5,0.1,2.1c0.1,0.6,0.2,1.1,0.4,1.5c0.2,0.4,0.5,0.7,0.8,0.9C254.7,818.6,255.1,818.7,255.7,818.7z"/>
				<path class="st8" d="M282.4,815.7c0-0.5,0-0.9-0.1-1.2c-0.1-0.4-0.3-0.7-0.5-1s-0.6-0.6-1.1-0.9c-0.5-0.3-1.1-0.6-1.9-0.9
					c-0.9-0.4-1.8-0.8-2.6-1.2s-1.5-0.9-2.2-1.4s-1.1-1.2-1.5-1.9c-0.4-0.7-0.5-1.6-0.5-2.6c0-1,0.2-1.8,0.5-2.6
					c0.3-0.8,0.8-1.5,1.5-2.1c0.6-0.6,1.4-1,2.3-1.3c0.9-0.3,1.9-0.5,2.9-0.5c1.5,0,2.8,0.3,3.9,0.9c1.1,0.6,1.9,1.5,2.5,2.6
					c0.6,1.1,0.9,2.3,0.9,3.7h-4.3c0-0.7-0.1-1.3-0.3-1.9c-0.2-0.6-0.5-1-1-1.3c-0.4-0.3-1-0.5-1.7-0.5c-0.7,0-1.2,0.1-1.6,0.4
					c-0.4,0.3-0.7,0.6-0.9,1.1c-0.2,0.4-0.3,1-0.3,1.5c0,0.4,0.1,0.8,0.3,1.1c0.2,0.3,0.4,0.6,0.8,0.9c0.3,0.3,0.7,0.5,1.2,0.8
					c0.5,0.2,1,0.5,1.6,0.7c1.1,0.4,2,0.9,2.8,1.3c0.8,0.5,1.5,1,2,1.6c0.5,0.6,0.9,1.3,1.2,2s0.4,1.6,0.4,2.6c0,1-0.2,1.8-0.5,2.6
					c-0.3,0.8-0.8,1.5-1.4,2c-0.6,0.6-1.4,1-2.3,1.3c-0.9,0.3-1.9,0.5-3,0.5c-1,0-2-0.2-3-0.5c-0.9-0.3-1.8-0.8-2.5-1.4
					c-0.7-0.6-1.3-1.4-1.7-2.4c-0.4-0.9-0.6-2.1-0.6-3.3h4.3c0,0.7,0.1,1.3,0.2,1.9c0.2,0.5,0.4,0.9,0.7,1.3
					c0.3,0.3,0.7,0.5,1.2,0.7s1,0.2,1.5,0.2c0.7,0,1.2-0.1,1.6-0.4c0.4-0.2,0.7-0.6,0.9-1S282.4,816.3,282.4,815.7z"/>
				<path class="st8" d="M296.6,822.1c-1.2,0-2.2-0.2-3.1-0.5c-0.9-0.4-1.7-0.9-2.3-1.5c-0.6-0.7-1.1-1.5-1.4-2.5
					c-0.3-1-0.5-2.1-0.5-3.4v-1.6c0-1.4,0.2-2.7,0.5-3.8c0.3-1.1,0.8-1.9,1.4-2.6c0.6-0.7,1.3-1.2,2.2-1.6c0.8-0.3,1.8-0.5,2.8-0.5
					c1.1,0,2,0.2,2.9,0.5c0.8,0.4,1.5,0.9,2,1.6c0.5,0.7,0.9,1.6,1.2,2.6c0.3,1,0.4,2.2,0.4,3.6v2h-11.5v-3h7.4V811
					c0-0.7-0.1-1.4-0.3-1.9c-0.2-0.5-0.4-0.9-0.8-1.2c-0.3-0.3-0.8-0.4-1.4-0.4c-0.5,0-0.9,0.1-1.2,0.3c-0.3,0.2-0.6,0.5-0.8,0.9
					c-0.2,0.4-0.4,0.9-0.5,1.6c-0.1,0.6-0.2,1.4-0.2,2.4v1.6c0,0.8,0.1,1.5,0.2,2.1c0.2,0.6,0.4,1,0.7,1.4c0.3,0.4,0.6,0.6,1.1,0.8
					c0.4,0.2,0.9,0.2,1.5,0.2c0.8,0,1.6-0.2,2.2-0.5s1.2-0.7,1.6-1.2l1.7,2.5c-0.3,0.4-0.7,0.8-1.3,1.2s-1.2,0.7-1.9,1
					S297.6,822.1,296.6,822.1z"/>
				<path class="st8" d="M313.8,811.2l0,2.6h-1.7c-0.5,0-0.9,0.1-1.3,0.2c-0.4,0.1-0.7,0.3-0.9,0.6s-0.4,0.6-0.6,0.9
					c-0.1,0.4-0.2,0.7-0.2,1.2c0,0.5,0.1,0.9,0.2,1.2c0.1,0.3,0.3,0.6,0.6,0.7c0.3,0.2,0.6,0.2,1,0.2c0.5,0,1-0.1,1.4-0.4
					c0.4-0.2,0.7-0.5,0.9-0.8c0.2-0.3,0.3-0.6,0.2-0.9l0.9,1.7c-0.1,0.4-0.3,0.8-0.5,1.3c-0.2,0.4-0.5,0.9-0.9,1.2
					c-0.3,0.4-0.8,0.7-1.3,0.9c-0.5,0.2-1.1,0.4-1.8,0.4c-1,0-1.8-0.2-2.6-0.6c-0.8-0.4-1.4-1-1.8-1.8c-0.4-0.8-0.7-1.7-0.7-2.8
					c0-0.9,0.1-1.7,0.4-2.4s0.7-1.3,1.3-1.8c0.6-0.5,1.3-0.9,2.1-1.2c0.9-0.3,1.9-0.4,3-0.4H313.8z M313.3,818v-8.3
					c0-0.6-0.1-1-0.2-1.3c-0.1-0.3-0.4-0.6-0.6-0.7s-0.6-0.2-1-0.2c-0.4,0-0.8,0.1-1.1,0.3c-0.3,0.2-0.5,0.4-0.7,0.8
					c-0.1,0.3-0.2,0.7-0.2,1.1h-4.1c0-0.7,0.1-1.4,0.4-2.1c0.3-0.7,0.7-1.2,1.3-1.7c0.5-0.5,1.2-0.9,2-1.2s1.6-0.4,2.6-0.4
					c1.1,0,2.1,0.2,3,0.6s1.6,1,2.1,1.8c0.5,0.8,0.8,1.9,0.8,3.3v7.9c0,0.9,0.1,1.6,0.2,2.3s0.3,1.2,0.5,1.6v0.3h-4.2
					c-0.2-0.4-0.3-1-0.4-1.7C313.3,819.4,313.3,818.7,313.3,818z"/>
				<path class="st8" d="M325.1,808v13.8H321v-17.4h3.9L325.1,808z M329.3,804.3l0,4.1c-0.2,0-0.5-0.1-0.7-0.1c-0.3,0-0.5,0-0.7,0
					c-0.5,0-0.9,0.1-1.3,0.3c-0.4,0.2-0.7,0.4-0.9,0.7s-0.4,0.7-0.6,1.2c-0.1,0.5-0.2,1-0.2,1.6l-0.8-0.1c0-1.1,0.1-2.1,0.3-3.1
					c0.2-0.9,0.4-1.8,0.8-2.5c0.3-0.7,0.8-1.2,1.3-1.6c0.5-0.4,1.1-0.6,1.8-0.6c0.2,0,0.4,0,0.7,0.1
					C328.9,804.2,329.1,804.2,329.3,804.3z"/>
				<path class="st8" d="M337.6,818.7c0.4,0,0.8-0.1,1.2-0.3s0.6-0.5,0.8-0.9c0.2-0.4,0.3-0.9,0.3-1.6h3.9c0,1.3-0.3,2.4-0.8,3.3
					c-0.6,0.9-1.3,1.6-2.2,2.2s-1.9,0.8-3.1,0.8c-1.2,0-2.2-0.2-3-0.6c-0.9-0.4-1.6-0.9-2.1-1.6s-1-1.6-1.3-2.6
					c-0.3-1-0.4-2.2-0.4-3.5v-1.4c0-1.3,0.1-2.5,0.4-3.5c0.3-1,0.7-1.9,1.3-2.6s1.3-1.3,2.1-1.6c0.9-0.4,1.9-0.6,3-0.6
					c1.2,0,2.3,0.3,3.2,0.8c0.9,0.5,1.6,1.3,2.1,2.3c0.5,1,0.8,2.2,0.8,3.7h-3.9c0-0.7-0.1-1.3-0.3-1.8c-0.2-0.5-0.4-0.8-0.8-1.1
					c-0.3-0.3-0.8-0.4-1.3-0.4c-0.6,0-1,0.1-1.4,0.3c-0.3,0.2-0.6,0.5-0.8,1c-0.2,0.4-0.3,0.9-0.4,1.5c-0.1,0.6-0.1,1.3-0.1,2.1v1.4
					c0,0.8,0,1.5,0.1,2.1c0.1,0.6,0.2,1.1,0.4,1.5c0.2,0.4,0.4,0.7,0.8,0.9S337,818.7,337.6,818.7z"/>
				<path class="st8" d="M350.5,797.1v24.7h-4.1v-24.7H350.5z M349.9,812.5l-1.2,0c0-1.2,0.1-2.3,0.4-3.4c0.3-1,0.6-1.9,1.1-2.7
					c0.5-0.8,1.1-1.3,1.8-1.8c0.7-0.4,1.5-0.6,2.3-0.6c0.7,0,1.4,0.1,1.9,0.4c0.6,0.2,1.1,0.6,1.5,1.1s0.8,1.2,1,2s0.3,1.9,0.3,3.1
					v11.1H355v-11.1c0-0.8-0.1-1.4-0.2-1.9c-0.2-0.5-0.4-0.8-0.7-1c-0.3-0.2-0.7-0.3-1.2-0.3c-0.5,0-0.9,0.1-1.3,0.4
					c-0.4,0.3-0.7,0.6-0.9,1.1c-0.2,0.5-0.4,1-0.5,1.6S349.9,811.8,349.9,812.5z"/>
			</g>
			<circle class="st9" cx="51" cy="811.5" r="9.6"/>
			<g>
				<path class="st8" d="M440.1,798.3v23.4h-4.1v-18.3l-4.6,1.8v-3.5l8.2-3.4H440.1z"/>
				<path class="st8" d="M460.6,818.4v3.4H447v-3l6.4-8.2c0.6-0.9,1.1-1.6,1.5-2.3c0.4-0.7,0.6-1.3,0.8-1.8c0.1-0.5,0.2-1,0.2-1.5
					c0-0.7-0.1-1.3-0.3-1.8c-0.2-0.5-0.4-0.9-0.8-1.2c-0.3-0.3-0.8-0.4-1.3-0.4c-0.6,0-1.2,0.2-1.6,0.5c-0.4,0.4-0.7,0.8-0.9,1.5
					c-0.2,0.6-0.3,1.3-0.3,2.1h-4.1c0-1.4,0.3-2.6,0.8-3.8s1.3-2.1,2.4-2.8c1-0.7,2.3-1,3.7-1c1.4,0,2.6,0.3,3.5,0.8
					c1,0.5,1.7,1.3,2.2,2.3c0.5,1,0.7,2.1,0.7,3.5c0,0.7-0.1,1.5-0.3,2.2c-0.2,0.7-0.5,1.5-0.9,2.2c-0.4,0.7-0.8,1.4-1.3,2.2
					c-0.5,0.7-1.1,1.5-1.8,2.3l-3.5,4.9H460.6z"/>
				<path class="st8" d="M464,819.7c0-0.7,0.2-1.2,0.7-1.7s1-0.7,1.8-0.7c0.8,0,1.4,0.2,1.8,0.7s0.7,1,0.7,1.7
					c0,0.7-0.2,1.2-0.7,1.6c-0.4,0.4-1,0.7-1.8,0.7c-0.8,0-1.4-0.2-1.8-0.7C464.2,820.9,464,820.3,464,819.7z"/>
				<path class="st8" d="M476.8,811.1l-3.3-0.8l1.1-11.8h11v3.6H478l-0.5,5.3c0.3-0.2,0.7-0.4,1.2-0.6s1-0.3,1.7-0.3
					c1,0,1.8,0.2,2.5,0.5c0.7,0.4,1.4,0.9,1.9,1.5c0.5,0.7,0.9,1.5,1.2,2.5s0.4,2.1,0.4,3.3c0,1.1-0.1,2.1-0.4,3
					c-0.3,0.9-0.7,1.8-1.3,2.5s-1.3,1.3-2.1,1.7s-1.8,0.6-3,0.6c-0.8,0-1.7-0.1-2.4-0.4c-0.8-0.3-1.5-0.7-2.1-1.3
					c-0.6-0.6-1.1-1.3-1.5-2.1c-0.4-0.8-0.6-1.8-0.6-2.9h4c0.1,0.7,0.2,1.3,0.4,1.8c0.2,0.5,0.5,0.9,0.9,1.1
					c0.4,0.3,0.8,0.4,1.3,0.4s0.9-0.1,1.2-0.3s0.6-0.5,0.8-1c0.2-0.4,0.4-0.9,0.5-1.5c0.1-0.6,0.2-1.2,0.2-1.8s-0.1-1.2-0.2-1.8
					c-0.1-0.5-0.3-1-0.6-1.4c-0.3-0.4-0.6-0.7-0.9-0.9c-0.4-0.2-0.8-0.3-1.3-0.3c-0.7,0-1.2,0.1-1.5,0.4
					C477.4,810.4,477.1,810.7,476.8,811.1z"/>
				<path class="st8" d="M489.4,804.1v-1.2c0-0.9,0.2-1.7,0.5-2.4c0.3-0.7,0.8-1.3,1.5-1.8c0.6-0.4,1.4-0.7,2.3-0.7
					c1,0,1.8,0.2,2.4,0.7c0.6,0.4,1.1,1,1.4,1.8c0.3,0.7,0.5,1.5,0.5,2.4v1.2c0,0.9-0.2,1.7-0.5,2.4c-0.3,0.7-0.8,1.3-1.4,1.8
					c-0.6,0.4-1.4,0.7-2.4,0.7c-0.9,0-1.7-0.2-2.4-0.7c-0.6-0.4-1.1-1-1.5-1.8C489.6,805.8,489.4,805,489.4,804.1z M492.1,802.9v1.2
					c0,0.4,0.1,0.8,0.2,1.1c0.1,0.4,0.3,0.6,0.5,0.9s0.5,0.3,0.9,0.3s0.6-0.1,0.9-0.3s0.4-0.5,0.5-0.9c0.1-0.4,0.2-0.7,0.2-1.1v-1.2
					c0-0.4-0.1-0.8-0.2-1.1s-0.3-0.6-0.5-0.9c-0.2-0.2-0.5-0.3-0.9-0.3c-0.3,0-0.6,0.1-0.9,0.3c-0.2,0.2-0.4,0.5-0.5,0.9
					C492.2,802.1,492.1,802.5,492.1,802.9z M504.1,801.8l-9.6,18.3l-2-1.2l9.6-18.3L504.1,801.8z M498.7,817.3v-1.2
					c0-0.9,0.2-1.7,0.5-2.4c0.3-0.7,0.8-1.3,1.5-1.8c0.6-0.4,1.4-0.7,2.3-0.7c1,0,1.7,0.2,2.4,0.7c0.6,0.4,1.1,1,1.4,1.8
					c0.3,0.7,0.5,1.5,0.5,2.4v1.2c0,0.9-0.2,1.7-0.5,2.4c-0.3,0.7-0.8,1.3-1.4,1.8c-0.6,0.4-1.4,0.7-2.4,0.7c-0.9,0-1.7-0.2-2.4-0.7
					c-0.7-0.4-1.1-1-1.5-1.8C498.8,819,498.7,818.2,498.7,817.3z M501.4,816.1v1.2c0,0.4,0.1,0.8,0.2,1.1c0.1,0.4,0.3,0.6,0.6,0.9
					c0.2,0.2,0.5,0.3,0.8,0.3c0.4,0,0.7-0.1,0.9-0.3s0.4-0.5,0.5-0.9s0.1-0.7,0.1-1.1v-1.2c0-0.4-0.1-0.8-0.2-1.1
					c-0.1-0.4-0.3-0.6-0.5-0.9s-0.5-0.3-0.9-0.3c-0.3,0-0.6,0.1-0.9,0.3c-0.2,0.2-0.4,0.5-0.5,0.9
					C501.5,815.3,501.4,815.6,501.4,816.1z"/>
				<path class="st8" d="M522.7,798.4v23.4h-4.3v-23.4H522.7z M524.3,821.8h-4.1l0-3.6h4.1c1.2,0,2.1-0.2,2.8-0.7s1.2-1.1,1.5-2
					c0.3-0.9,0.4-2.1,0.4-3.6v-3.7c0-1.1-0.1-2.1-0.2-2.8c-0.2-0.8-0.4-1.4-0.8-1.9c-0.4-0.5-0.8-0.9-1.4-1.1
					c-0.6-0.2-1.3-0.4-2.2-0.4h-4.3v-3.6h4.3c1.3,0,2.6,0.2,3.7,0.7s2,1.1,2.8,1.9s1.4,1.9,1.8,3.1c0.4,1.2,0.6,2.6,0.6,4.2v3.7
					c0,1.6-0.2,3-0.6,4.2c-0.4,1.2-1,2.2-1.8,3.1s-1.7,1.5-2.8,1.9S525.7,821.8,524.3,821.8z"/>
				<path class="st8" d="M536.7,799.9c0-0.7,0.2-1.2,0.6-1.6c0.4-0.4,1-0.6,1.7-0.6s1.3,0.2,1.7,0.6c0.4,0.4,0.6,1,0.6,1.6
					c0,0.6-0.2,1.2-0.6,1.6c-0.4,0.4-0.9,0.6-1.7,0.6s-1.3-0.2-1.7-0.6S536.7,800.5,536.7,799.9z M541.1,804.4v17.4h-4.1v-17.4
					H541.1z"/>
				<path class="st8" d="M549,808v13.8h-4.1v-17.4h3.9L549,808z M553.1,804.3l0,4.1c-0.2,0-0.5-0.1-0.7-0.1s-0.5,0-0.7,0
					c-0.5,0-0.9,0.1-1.3,0.3c-0.4,0.2-0.7,0.4-0.9,0.7s-0.4,0.7-0.6,1.2c-0.1,0.5-0.2,1-0.2,1.6l-0.8-0.1c0-1.1,0.1-2.1,0.3-3.1
					c0.2-0.9,0.4-1.8,0.8-2.5c0.3-0.7,0.8-1.2,1.3-1.6c0.5-0.4,1.1-0.6,1.8-0.6c0.2,0,0.4,0,0.7,0.1
					C552.8,804.2,553,804.2,553.1,804.3z"/>
				<path class="st8" d="M562,822.1c-1.2,0-2.2-0.2-3.1-0.5c-0.9-0.4-1.7-0.9-2.3-1.5c-0.6-0.7-1.1-1.5-1.4-2.5
					c-0.3-1-0.5-2.1-0.5-3.4v-1.6c0-1.4,0.2-2.7,0.5-3.8c0.3-1.1,0.8-1.9,1.4-2.6s1.3-1.2,2.2-1.6c0.8-0.3,1.8-0.5,2.8-0.5
					c1.1,0,2,0.2,2.9,0.5s1.5,0.9,2,1.6c0.5,0.7,0.9,1.6,1.2,2.6c0.3,1,0.4,2.2,0.4,3.6v2h-11.5v-3h7.4V811c0-0.7-0.1-1.4-0.3-1.9
					s-0.4-0.9-0.8-1.2c-0.3-0.3-0.8-0.4-1.4-0.4c-0.5,0-0.9,0.1-1.2,0.3c-0.3,0.2-0.6,0.5-0.8,0.9c-0.2,0.4-0.4,0.9-0.5,1.6
					c-0.1,0.6-0.2,1.4-0.2,2.4v1.6c0,0.8,0.1,1.5,0.2,2.1c0.1,0.6,0.4,1,0.7,1.4c0.3,0.4,0.6,0.6,1.1,0.8c0.4,0.2,0.9,0.2,1.5,0.2
					c0.8,0,1.6-0.2,2.2-0.5s1.2-0.7,1.6-1.2l1.7,2.5c-0.3,0.4-0.7,0.8-1.3,1.2s-1.2,0.7-1.9,1C563.9,822,563,822.1,562,822.1z"/>
				<path class="st8" d="M577.1,818.7c0.4,0,0.8-0.1,1.2-0.3s0.6-0.5,0.8-0.9c0.2-0.4,0.3-0.9,0.3-1.6h3.9c0,1.3-0.3,2.4-0.8,3.3
					s-1.3,1.6-2.2,2.2c-0.9,0.5-1.9,0.8-3.1,0.8c-1.2,0-2.2-0.2-3-0.6c-0.9-0.4-1.6-0.9-2.1-1.6s-1-1.6-1.3-2.6
					c-0.3-1-0.4-2.2-0.4-3.5v-1.4c0-1.3,0.1-2.5,0.4-3.5c0.3-1,0.7-1.9,1.3-2.6s1.3-1.3,2.1-1.6c0.9-0.4,1.9-0.6,3-0.6
					c1.2,0,2.3,0.3,3.2,0.8s1.6,1.3,2.1,2.3c0.5,1,0.8,2.2,0.8,3.7h-3.9c0-0.7-0.1-1.3-0.3-1.8s-0.4-0.8-0.8-1.1
					c-0.3-0.3-0.8-0.4-1.3-0.4c-0.6,0-1,0.1-1.4,0.3c-0.3,0.2-0.6,0.5-0.8,1c-0.2,0.4-0.3,0.9-0.4,1.5c-0.1,0.6-0.1,1.3-0.1,2.1v1.4
					c0,0.8,0,1.5,0.1,2.1c0.1,0.6,0.2,1.1,0.4,1.5c0.2,0.4,0.4,0.7,0.8,0.9S576.5,818.7,577.1,818.7z"/>
				<path class="st8" d="M593.3,804.4v3.1h-8.7v-3.1H593.3z M586.8,800.1h4.1v16.6c0,0.5,0.1,0.9,0.2,1.2c0.1,0.3,0.3,0.5,0.5,0.6
					s0.5,0.1,0.8,0.1c0.2,0,0.4,0,0.6,0c0.2,0,0.4-0.1,0.5-0.1l0,3.3c-0.3,0.1-0.7,0.2-1,0.3c-0.4,0.1-0.8,0.1-1.3,0.1
					c-0.8,0-1.6-0.2-2.2-0.5c-0.6-0.3-1.1-0.9-1.5-1.6c-0.4-0.7-0.5-1.7-0.5-2.9V800.1z"/>
			</g>
			<circle class="st10" cx="406.1" cy="811.5" r="9.6"/>
			<g>
				<path class="st8" d="M79.3,862.6v-2.3h2.8c1.1,0,2.1,0.2,2.9,0.5c0.8,0.3,1.5,0.7,2,1.3s0.9,1.2,1.1,1.9
					c0.2,0.7,0.4,1.5,0.4,2.4c0,1.1-0.2,2.1-0.5,2.9c-0.3,0.9-0.8,1.6-1.5,2.2c-0.6,0.6-1.4,1-2.2,1.3c-0.8,0.3-1.8,0.5-2.7,0.5
					c-0.9,0-1.7-0.1-2.5-0.4c-0.8-0.3-1.5-0.7-2.1-1.2c-0.6-0.6-1.1-1.2-1.5-2.1c-0.4-0.8-0.5-1.8-0.5-2.9H79c0,0.6,0.1,1.2,0.3,1.7
					c0.2,0.5,0.5,0.9,0.9,1.1c0.4,0.3,0.8,0.4,1.3,0.4c0.6,0,1.1-0.1,1.5-0.4s0.7-0.7,0.9-1.2c0.2-0.5,0.3-1.1,0.3-1.9
					c0-0.9-0.1-1.6-0.4-2.1s-0.6-0.9-1-1.2c-0.4-0.3-1-0.4-1.6-0.4H79.3z M79.3,859.2h2.1c0.6,0,1.1-0.1,1.5-0.4
					c0.4-0.3,0.7-0.7,0.9-1.2c0.2-0.5,0.3-1.1,0.3-1.8c0-0.7-0.1-1.2-0.3-1.7c-0.2-0.5-0.5-0.9-0.8-1.1c-0.4-0.3-0.8-0.4-1.4-0.4
					c-0.4,0-0.8,0.1-1.2,0.4c-0.4,0.2-0.7,0.6-0.9,1c-0.2,0.4-0.3,1-0.3,1.6h-4.1c0-1.3,0.3-2.4,0.8-3.3c0.6-1,1.3-1.7,2.3-2.2
					c1-0.5,2.1-0.8,3.3-0.8c1.3,0,2.5,0.3,3.5,0.8s1.8,1.2,2.3,2.2c0.6,1,0.8,2.2,0.8,3.7c0,0.7-0.1,1.4-0.4,2.1
					c-0.3,0.7-0.7,1.3-1.2,1.9c-0.5,0.6-1.2,1-1.9,1.3c-0.8,0.3-1.7,0.5-2.7,0.5h-2.8V859.2z"/>
				<path class="st8" d="M92.4,870.7c0-0.7,0.2-1.2,0.7-1.7s1-0.7,1.8-0.7s1.4,0.2,1.8,0.7s0.7,1,0.7,1.7c0,0.7-0.2,1.2-0.7,1.6
					c-0.4,0.4-1,0.7-1.8,0.7s-1.4-0.2-1.8-0.7C92.6,871.9,92.4,871.3,92.4,870.7z"/>
				<path class="st8" d="M104.1,869.4h0.2c1.1,0,2.1-0.2,2.8-0.5c0.8-0.3,1.4-0.8,1.8-1.5c0.5-0.6,0.8-1.4,1-2.3
					c0.2-0.9,0.3-1.9,0.3-3v-4.3c0-0.9-0.1-1.7-0.2-2.3c-0.1-0.7-0.3-1.2-0.6-1.7c-0.2-0.4-0.5-0.8-0.8-1c-0.3-0.2-0.6-0.3-1-0.3
					c-0.4,0-0.8,0.1-1.1,0.4s-0.6,0.6-0.8,1c-0.2,0.4-0.4,0.9-0.5,1.5c-0.1,0.6-0.2,1.2-0.2,1.8s0.1,1.2,0.2,1.8
					c0.1,0.6,0.3,1,0.5,1.5s0.5,0.8,0.8,1s0.7,0.4,1.2,0.4c0.4,0,0.7-0.1,1-0.3s0.6-0.5,0.9-0.9c0.3-0.4,0.5-0.8,0.6-1.2
					c0.2-0.4,0.2-0.9,0.3-1.4l1.4,0.7c0,0.8-0.1,1.5-0.4,2.3c-0.3,0.7-0.6,1.4-1.1,2c-0.5,0.6-1,1.1-1.6,1.5c-0.6,0.4-1.3,0.5-2,0.5
					c-0.9,0-1.8-0.2-2.5-0.6c-0.7-0.4-1.3-1-1.8-1.7c-0.5-0.7-0.8-1.6-1.1-2.5c-0.2-1-0.4-2-0.4-3.1c0-1.1,0.1-2.2,0.4-3.2
					c0.3-1,0.7-1.9,1.3-2.6c0.6-0.8,1.3-1.3,2.1-1.8c0.8-0.4,1.7-0.7,2.8-0.7c1,0,2,0.2,2.8,0.7c0.8,0.5,1.5,1.1,2.1,2s1,1.9,1.3,3
					c0.3,1.2,0.4,2.4,0.4,3.8v1.5c0,1.5-0.1,2.9-0.4,4.2c-0.2,1.3-0.6,2.5-1.1,3.5c-0.5,1.1-1.1,2-1.9,2.8c-0.8,0.8-1.7,1.4-2.8,1.8
					c-1.1,0.4-2.4,0.6-3.8,0.6h-0.3V869.4z"/>
				<path class="st8" d="M117.8,855.2v-1.2c0-0.9,0.2-1.7,0.5-2.4c0.3-0.7,0.8-1.3,1.5-1.8c0.6-0.4,1.4-0.7,2.3-0.7
					c1,0,1.8,0.2,2.4,0.7c0.6,0.4,1.1,1,1.4,1.8c0.3,0.7,0.5,1.5,0.5,2.4v1.2c0,0.9-0.2,1.7-0.5,2.4c-0.3,0.7-0.8,1.3-1.4,1.8
					c-0.6,0.4-1.4,0.7-2.4,0.7c-0.9,0-1.7-0.2-2.4-0.7c-0.6-0.4-1.1-1-1.5-1.8C117.9,856.8,117.8,856,117.8,855.2z M120.5,853.9v1.2
					c0,0.4,0.1,0.8,0.2,1.1c0.1,0.4,0.3,0.6,0.5,0.9c0.2,0.2,0.5,0.3,0.9,0.3s0.6-0.1,0.9-0.3s0.4-0.5,0.5-0.9
					c0.1-0.4,0.2-0.7,0.2-1.1v-1.2c0-0.4-0.1-0.8-0.2-1.1s-0.3-0.6-0.5-0.9c-0.2-0.2-0.5-0.3-0.9-0.3c-0.3,0-0.6,0.1-0.9,0.3
					c-0.2,0.2-0.4,0.5-0.5,0.9S120.5,853.5,120.5,853.9z M132.4,852.8l-9.6,18.3l-2-1.2l9.6-18.3L132.4,852.8z M127.1,868.3v-1.2
					c0-0.9,0.2-1.7,0.5-2.4c0.3-0.7,0.8-1.3,1.5-1.8c0.6-0.4,1.4-0.7,2.3-0.7c1,0,1.7,0.2,2.4,0.7c0.6,0.4,1.1,1,1.4,1.8
					c0.3,0.7,0.5,1.5,0.5,2.4v1.2c0,0.9-0.2,1.7-0.5,2.4c-0.3,0.7-0.8,1.3-1.4,1.8c-0.6,0.4-1.4,0.7-2.4,0.7c-0.9,0-1.7-0.2-2.4-0.7
					c-0.7-0.4-1.1-1-1.5-1.8C127.2,870,127.1,869.2,127.1,868.3z M129.8,867.1v1.2c0,0.4,0.1,0.8,0.2,1.1c0.1,0.4,0.3,0.6,0.6,0.9
					s0.5,0.3,0.8,0.3c0.4,0,0.7-0.1,0.9-0.3s0.4-0.5,0.5-0.9c0.1-0.3,0.1-0.7,0.1-1.1v-1.2c0-0.4-0.1-0.8-0.2-1.1
					c-0.1-0.4-0.3-0.6-0.5-0.9s-0.5-0.3-0.9-0.3c-0.3,0-0.6,0.1-0.9,0.3c-0.2,0.2-0.4,0.5-0.5,0.9
					C129.9,866.3,129.8,866.7,129.8,867.1z"/>
				<path class="st8" d="M151,849.4v23.4h-4.3v-23.4H151z M152.7,872.8h-4.1l0-3.6h4.1c1.2,0,2.1-0.2,2.8-0.7s1.2-1.1,1.5-2
					c0.3-0.9,0.4-2.1,0.4-3.6v-3.7c0-1.1-0.1-2.1-0.2-2.8c-0.2-0.8-0.4-1.4-0.8-1.9s-0.8-0.9-1.4-1.1s-1.3-0.4-2.2-0.4h-4.3v-3.6
					h4.3c1.3,0,2.6,0.2,3.7,0.7s2,1.1,2.8,1.9s1.4,1.9,1.8,3.1c0.4,1.2,0.6,2.6,0.6,4.2v3.7c0,1.6-0.2,3-0.6,4.2
					c-0.4,1.2-1,2.2-1.8,3.1s-1.7,1.5-2.8,1.9C155.3,872.6,154,872.8,152.7,872.8z"/>
				<path class="st8" d="M165.1,850.9c0-0.7,0.2-1.2,0.6-1.6c0.4-0.4,1-0.6,1.7-0.6c0.7,0,1.3,0.2,1.7,0.6c0.4,0.4,0.6,1,0.6,1.6
					c0,0.6-0.2,1.2-0.6,1.6c-0.4,0.4-0.9,0.6-1.7,0.6c-0.7,0-1.3-0.2-1.7-0.6C165.3,852.1,165.1,851.5,165.1,850.9z M169.4,855.4
					v17.4h-4.1v-17.4H169.4z"/>
				<path class="st8" d="M181.1,868.2c0-0.3-0.1-0.6-0.3-0.9s-0.5-0.5-1-0.8s-1-0.6-1.8-0.9c-0.8-0.3-1.5-0.7-2.1-1
					c-0.6-0.3-1.1-0.7-1.6-1.1c-0.4-0.4-0.8-0.9-1-1.4c-0.2-0.5-0.3-1.1-0.3-1.8c0-0.7,0.1-1.4,0.4-2c0.3-0.6,0.7-1.2,1.2-1.6
					c0.5-0.5,1.1-0.8,1.9-1.1c0.7-0.3,1.5-0.4,2.5-0.4c1.3,0,2.4,0.2,3.3,0.7s1.6,1.1,2.1,1.9c0.5,0.8,0.7,1.8,0.7,2.8h-4.1
					c0-0.4-0.1-0.8-0.2-1.1s-0.4-0.6-0.7-0.8s-0.7-0.3-1.2-0.3c-0.4,0-0.7,0.1-1,0.2c-0.3,0.2-0.5,0.4-0.7,0.6
					c-0.1,0.3-0.2,0.6-0.2,0.9c0,0.3,0.1,0.5,0.2,0.7c0.1,0.2,0.3,0.4,0.5,0.6s0.5,0.4,0.9,0.5s0.9,0.4,1.4,0.7
					c1.2,0.4,2.1,0.9,2.9,1.4c0.8,0.5,1.3,1.1,1.7,1.7c0.4,0.6,0.6,1.5,0.6,2.4c0,0.8-0.1,1.5-0.4,2.1c-0.3,0.6-0.7,1.2-1.2,1.6
					c-0.5,0.5-1.2,0.8-2,1s-1.6,0.4-2.6,0.4c-1.4,0-2.5-0.3-3.5-0.8s-1.7-1.3-2.2-2.1s-0.7-1.8-0.7-2.7h4c0,0.6,0.1,1.1,0.4,1.5
					s0.5,0.6,0.9,0.7c0.4,0.1,0.8,0.2,1.2,0.2c0.5,0,0.9-0.1,1.2-0.2s0.5-0.3,0.7-0.6C181,868.8,181.1,868.5,181.1,868.2z"/>
				<path class="st8" d="M192.3,858.8v20.7h-4.1v-24.1h3.8L192.3,858.8z M201.5,863.5v1.3c0,1.4-0.1,2.6-0.4,3.6
					c-0.2,1-0.6,1.9-1.1,2.6s-1.1,1.3-1.8,1.6c-0.7,0.4-1.5,0.5-2.4,0.5c-0.9,0-1.6-0.2-2.3-0.6c-0.6-0.4-1.2-1-1.6-1.7
					c-0.4-0.7-0.8-1.6-1-2.5c-0.3-1-0.4-2-0.6-3.1v-2c0.1-1.2,0.3-2.3,0.6-3.3c0.3-1,0.6-1.9,1-2.6c0.4-0.7,1-1.3,1.6-1.7
					c0.6-0.4,1.4-0.6,2.3-0.6c0.9,0,1.8,0.2,2.5,0.5s1.3,0.8,1.8,1.5c0.5,0.7,0.8,1.6,1.1,2.6S201.5,862.1,201.5,863.5z
					 M197.3,864.7v-1.3c0-0.9-0.1-1.6-0.2-2.2c-0.1-0.6-0.3-1.1-0.5-1.5c-0.2-0.4-0.5-0.7-0.9-0.9s-0.8-0.3-1.3-0.3
					c-0.5,0-0.9,0.1-1.2,0.3c-0.4,0.2-0.6,0.5-0.9,0.8s-0.4,0.8-0.5,1.2s-0.2,1-0.2,1.6v3.5c0.1,0.7,0.2,1.3,0.4,1.9s0.5,1,0.9,1.3
					c0.4,0.3,0.9,0.5,1.6,0.5c0.5,0,0.9-0.1,1.3-0.3s0.6-0.5,0.9-0.9c0.2-0.4,0.4-0.9,0.5-1.5C197.3,866.3,197.3,865.6,197.3,864.7z
					"/>
				<path class="st8" d="M208.8,848.1v24.7h-4.1v-24.7H208.8z"/>
				<path class="st8" d="M220.9,862.2l0,2.6h-1.7c-0.5,0-0.9,0.1-1.3,0.2c-0.4,0.1-0.7,0.3-0.9,0.6s-0.4,0.6-0.6,0.9
					c-0.1,0.4-0.2,0.7-0.2,1.2c0,0.5,0.1,0.9,0.2,1.2c0.1,0.3,0.3,0.6,0.6,0.7c0.3,0.2,0.6,0.2,1,0.2c0.5,0,1-0.1,1.4-0.4
					c0.4-0.2,0.7-0.5,0.9-0.8c0.2-0.3,0.3-0.6,0.2-0.9l0.9,1.7c-0.1,0.4-0.3,0.8-0.5,1.3c-0.2,0.4-0.5,0.9-0.9,1.2
					c-0.3,0.4-0.8,0.7-1.3,0.9c-0.5,0.2-1.1,0.4-1.8,0.4c-1,0-1.8-0.2-2.6-0.6c-0.8-0.4-1.4-1-1.8-1.8c-0.4-0.8-0.7-1.7-0.7-2.8
					c0-0.9,0.1-1.7,0.4-2.4s0.7-1.3,1.3-1.8c0.6-0.5,1.3-0.9,2.1-1.2c0.9-0.3,1.9-0.4,3-0.4H220.9z M220.4,869v-8.3
					c0-0.6-0.1-1-0.2-1.3c-0.1-0.3-0.4-0.6-0.6-0.7s-0.6-0.2-1-0.2c-0.4,0-0.8,0.1-1.1,0.3c-0.3,0.2-0.5,0.4-0.7,0.8
					c-0.1,0.3-0.2,0.7-0.2,1.1h-4.1c0-0.7,0.1-1.4,0.4-2.1c0.3-0.7,0.7-1.2,1.3-1.7c0.5-0.5,1.2-0.9,2-1.2s1.6-0.4,2.6-0.4
					c1.1,0,2.1,0.2,3,0.6s1.6,1,2.1,1.8c0.5,0.8,0.8,1.9,0.8,3.3v7.9c0,0.9,0.1,1.6,0.2,2.3s0.3,1.2,0.5,1.6v0.3h-4.2
					c-0.2-0.4-0.3-1-0.4-1.7C220.4,870.4,220.4,869.7,220.4,869z"/>
				<path class="st8" d="M230.9,855.4l2.9,12.7l0.6,4.6l-2.8,0.5l-5.1-17.8H230.9z M232.1,870.9l3.7-15.4h4.3l-5.7,20
					c-0.1,0.4-0.3,0.9-0.5,1.4c-0.2,0.5-0.5,1-0.9,1.4c-0.4,0.5-0.8,0.8-1.4,1.1s-1.2,0.4-2,0.4c-0.3,0-0.6,0-0.9-0.1
					s-0.5-0.1-0.9-0.2l0-3.3c0.1,0,0.2,0,0.3,0c0.1,0,0.2,0,0.3,0c0.5,0,0.9-0.1,1.3-0.2s0.6-0.4,0.8-0.7c0.2-0.3,0.4-0.7,0.5-1.2
					L232.1,870.9z"/>
			</g>
			<circle class="st11" cx="51" cy="862.5" r="9.6"/>
			<g>
				<path class="st8" d="M440.1,849.4v23.4h-4.1v-18.3l-4.6,1.8v-3.5l8.2-3.4H440.1z"/>
				<path class="st8" d="M447.5,870.7c0-0.7,0.2-1.2,0.7-1.7s1-0.7,1.8-0.7c0.8,0,1.4,0.2,1.8,0.7s0.7,1,0.7,1.7
					c0,0.7-0.2,1.2-0.7,1.6c-0.4,0.4-1,0.7-1.8,0.7c-0.8,0-1.4-0.2-1.8-0.7C447.7,871.9,447.5,871.3,447.5,870.7z"/>
				<path class="st8" d="M460.3,862.6v-2.3h2.8c1.1,0,2.1,0.2,2.9,0.5s1.5,0.7,2,1.3s0.9,1.2,1.1,1.9c0.2,0.7,0.4,1.5,0.4,2.4
					c0,1.1-0.2,2.1-0.5,2.9c-0.3,0.9-0.8,1.6-1.5,2.2c-0.6,0.6-1.4,1-2.2,1.3c-0.8,0.3-1.8,0.5-2.7,0.5c-0.9,0-1.7-0.1-2.5-0.4
					c-0.8-0.3-1.5-0.7-2.1-1.2c-0.6-0.6-1.1-1.2-1.5-2.1c-0.4-0.8-0.5-1.8-0.5-2.9h4.1c0,0.6,0.1,1.2,0.3,1.7
					c0.2,0.5,0.5,0.9,0.9,1.1c0.4,0.3,0.8,0.4,1.3,0.4c0.6,0,1.1-0.1,1.5-0.4s0.7-0.7,0.9-1.2c0.2-0.5,0.3-1.1,0.3-1.9
					c0-0.9-0.1-1.6-0.4-2.1c-0.2-0.5-0.6-0.9-1-1.2c-0.4-0.3-1-0.4-1.6-0.4H460.3z M460.3,859.2h2.1c0.6,0,1.1-0.1,1.5-0.4
					c0.4-0.3,0.7-0.7,0.9-1.2s0.3-1.1,0.3-1.8c0-0.7-0.1-1.2-0.3-1.7s-0.5-0.9-0.8-1.1s-0.8-0.4-1.4-0.4c-0.4,0-0.8,0.1-1.2,0.4
					c-0.4,0.2-0.7,0.6-0.9,1c-0.2,0.4-0.3,1-0.3,1.6h-4.1c0-1.3,0.3-2.4,0.8-3.3s1.3-1.7,2.3-2.2c1-0.5,2.1-0.8,3.3-0.8
					c1.3,0,2.5,0.3,3.5,0.8s1.8,1.2,2.3,2.2c0.6,1,0.8,2.2,0.8,3.7c0,0.7-0.1,1.4-0.4,2.1c-0.3,0.7-0.7,1.3-1.2,1.9
					c-0.5,0.6-1.2,1-1.9,1.3c-0.8,0.3-1.7,0.5-2.7,0.5h-2.8V859.2z"/>
				<path class="st8" d="M472.9,855.2v-1.2c0-0.9,0.2-1.7,0.5-2.4c0.3-0.7,0.8-1.3,1.5-1.8c0.6-0.4,1.4-0.7,2.3-0.7
					c1,0,1.8,0.2,2.4,0.7c0.6,0.4,1.1,1,1.4,1.8c0.3,0.7,0.5,1.5,0.5,2.4v1.2c0,0.9-0.2,1.7-0.5,2.4c-0.3,0.7-0.8,1.3-1.4,1.8
					c-0.6,0.4-1.4,0.7-2.4,0.7c-0.9,0-1.7-0.2-2.4-0.7c-0.6-0.4-1.1-1-1.5-1.8C473,856.8,472.9,856,472.9,855.2z M475.6,853.9v1.2
					c0,0.4,0.1,0.8,0.2,1.1c0.1,0.4,0.3,0.6,0.5,0.9s0.5,0.3,0.9,0.3s0.6-0.1,0.9-0.3s0.4-0.5,0.5-0.9c0.1-0.4,0.2-0.7,0.2-1.1v-1.2
					c0-0.4-0.1-0.8-0.2-1.1s-0.3-0.6-0.5-0.9c-0.2-0.2-0.5-0.3-0.9-0.3c-0.3,0-0.6,0.1-0.9,0.3c-0.2,0.2-0.4,0.5-0.5,0.9
					C475.7,853.1,475.6,853.5,475.6,853.9z M487.5,852.8l-9.6,18.3l-2-1.2l9.6-18.3L487.5,852.8z M482.1,868.3v-1.2
					c0-0.9,0.2-1.7,0.5-2.4c0.3-0.7,0.8-1.3,1.5-1.8c0.6-0.4,1.4-0.7,2.3-0.7c1,0,1.7,0.2,2.4,0.7c0.6,0.4,1.1,1,1.4,1.8
					c0.3,0.7,0.5,1.5,0.5,2.4v1.2c0,0.9-0.2,1.7-0.5,2.4c-0.3,0.7-0.8,1.3-1.4,1.8c-0.6,0.4-1.4,0.7-2.4,0.7c-0.9,0-1.7-0.2-2.4-0.7
					c-0.7-0.4-1.1-1-1.5-1.8C482.3,870,482.1,869.2,482.1,868.3z M484.9,867.1v1.2c0,0.4,0.1,0.8,0.2,1.1c0.1,0.4,0.3,0.6,0.6,0.9
					c0.2,0.2,0.5,0.3,0.8,0.3c0.4,0,0.7-0.1,0.9-0.3s0.4-0.5,0.5-0.9s0.1-0.7,0.1-1.1v-1.2c0-0.4-0.1-0.8-0.2-1.1
					c-0.1-0.4-0.3-0.6-0.5-0.9s-0.5-0.3-0.9-0.3c-0.3,0-0.6,0.1-0.9,0.3c-0.2,0.2-0.4,0.5-0.5,0.9
					C485,866.3,484.9,866.7,484.9,867.1z"/>
				<path class="st8" d="M501.8,849.4h7.3c1.6,0,2.9,0.3,4,0.8s1.9,1.3,2.5,2.4c0.6,1,0.9,2.3,0.9,3.9c0,1.2-0.2,2.3-0.5,3.2
					s-0.8,1.6-1.5,2.2c-0.6,0.6-1.4,1.1-2.3,1.4l-1.3,0.7h-6l0-3.6h4.2c0.7,0,1.3-0.2,1.7-0.5c0.5-0.3,0.8-0.7,1-1.3
					c0.2-0.6,0.3-1.2,0.3-1.9c0-0.8-0.1-1.5-0.3-2c-0.2-0.6-0.5-1-1-1.3c-0.4-0.3-1-0.4-1.7-0.4h-3v19.8h-4.3V849.4z M512.6,872.8
					l-4.4-10.5h4.5l4.5,10.2v0.2H512.6z"/>
				<path class="st8" d="M526.4,873.1c-1.2,0-2.2-0.2-3.1-0.5c-0.9-0.4-1.7-0.9-2.3-1.5c-0.6-0.7-1.1-1.5-1.4-2.5
					c-0.3-1-0.5-2.1-0.5-3.4v-1.6c0-1.4,0.2-2.7,0.5-3.8c0.3-1.1,0.8-1.9,1.4-2.6s1.3-1.2,2.2-1.6c0.8-0.3,1.8-0.5,2.8-0.5
					c1.1,0,2,0.2,2.9,0.5c0.8,0.4,1.5,0.9,2,1.6c0.5,0.7,0.9,1.6,1.2,2.6s0.4,2.2,0.4,3.6v2H521v-3h7.4v-0.4c0-0.7-0.1-1.4-0.3-1.9
					c-0.2-0.5-0.4-0.9-0.8-1.2c-0.3-0.3-0.8-0.4-1.4-0.4c-0.5,0-0.9,0.1-1.2,0.3c-0.3,0.2-0.6,0.5-0.8,0.9c-0.2,0.4-0.4,0.9-0.5,1.6
					s-0.2,1.4-0.2,2.4v1.6c0,0.8,0.1,1.5,0.2,2.1c0.2,0.6,0.4,1,0.7,1.4c0.3,0.4,0.6,0.6,1.1,0.8c0.4,0.2,0.9,0.2,1.5,0.2
					c0.8,0,1.6-0.2,2.2-0.5c0.6-0.3,1.2-0.7,1.6-1.2l1.7,2.5c-0.3,0.4-0.7,0.8-1.3,1.2s-1.2,0.7-1.9,1
					C528.3,873,527.4,873.1,526.4,873.1z"/>
				<path class="st8" d="M543.3,855.4v3.1h-9v-3.1H543.3z M540.5,872.8h-4.1v-19c0-1.3,0.2-2.4,0.7-3.3c0.4-0.9,1.1-1.6,1.9-2
					c0.8-0.5,1.8-0.7,2.9-0.7c0.4,0,0.7,0,1,0.1c0.3,0.1,0.6,0.1,1,0.2l-0.1,3.3c-0.1-0.1-0.3-0.1-0.5-0.1s-0.4,0-0.6,0
					c-0.4,0-0.8,0.1-1.1,0.3c-0.3,0.2-0.6,0.5-0.7,0.9s-0.2,0.8-0.2,1.4V872.8z"/>
				<path class="st8" d="M552.4,873.1c-1.2,0-2.2-0.2-3.1-0.5c-0.9-0.4-1.7-0.9-2.3-1.5c-0.6-0.7-1.1-1.5-1.4-2.5
					c-0.3-1-0.5-2.1-0.5-3.4v-1.6c0-1.4,0.2-2.7,0.5-3.8c0.3-1.1,0.8-1.9,1.4-2.6s1.3-1.2,2.2-1.6c0.8-0.3,1.8-0.5,2.8-0.5
					c1.1,0,2,0.2,2.9,0.5s1.5,0.9,2,1.6c0.5,0.7,0.9,1.6,1.2,2.6c0.3,1,0.4,2.2,0.4,3.6v2H547v-3h7.4v-0.4c0-0.7-0.1-1.4-0.3-1.9
					s-0.4-0.9-0.8-1.2c-0.3-0.3-0.8-0.4-1.4-0.4c-0.5,0-0.9,0.1-1.2,0.3c-0.3,0.2-0.6,0.5-0.8,0.9c-0.2,0.4-0.4,0.9-0.5,1.6
					c-0.1,0.6-0.2,1.4-0.2,2.4v1.6c0,0.8,0.1,1.5,0.2,2.1c0.1,0.6,0.4,1,0.7,1.4c0.3,0.4,0.6,0.6,1.1,0.8c0.4,0.2,0.9,0.2,1.5,0.2
					c0.8,0,1.6-0.2,2.2-0.5s1.2-0.7,1.6-1.2l1.7,2.5c-0.3,0.4-0.7,0.8-1.3,1.2s-1.2,0.7-1.9,1C554.3,873,553.4,873.1,552.4,873.1z"
					/>
				<path class="st8" d="M565.4,859v13.8h-4.1v-17.4h3.9L565.4,859z M569.5,855.3l0,4.1c-0.2,0-0.5-0.1-0.7-0.1c-0.3,0-0.5,0-0.7,0
					c-0.5,0-0.9,0.1-1.3,0.3c-0.4,0.2-0.7,0.4-0.9,0.7s-0.4,0.7-0.6,1.2s-0.2,1-0.2,1.6l-0.8-0.1c0-1.1,0.1-2.1,0.3-3.1
					c0.2-0.9,0.4-1.8,0.8-2.5c0.3-0.7,0.8-1.2,1.3-1.6c0.5-0.4,1.1-0.6,1.8-0.6c0.2,0,0.4,0,0.7,0.1
					C569.2,855.2,569.4,855.3,569.5,855.3z"/>
				<path class="st8" d="M576,859v13.8h-4.1v-17.4h3.9L576,859z M580.2,855.3l0,4.1c-0.2,0-0.5-0.1-0.7-0.1c-0.3,0-0.5,0-0.7,0
					c-0.5,0-0.9,0.1-1.3,0.3c-0.4,0.2-0.7,0.4-0.9,0.7s-0.4,0.7-0.6,1.2s-0.2,1-0.2,1.6l-0.8-0.1c0-1.1,0.1-2.1,0.3-3.1
					c0.2-0.9,0.4-1.8,0.8-2.5c0.3-0.7,0.8-1.2,1.3-1.6c0.5-0.4,1.1-0.6,1.8-0.6c0.2,0,0.4,0,0.7,0.1
					C579.9,855.2,580.1,855.3,580.2,855.3z"/>
				<path class="st8" d="M590.5,862.2l0,2.6h-1.7c-0.5,0-0.9,0.1-1.3,0.2c-0.4,0.1-0.7,0.3-0.9,0.6s-0.4,0.6-0.6,0.9
					c-0.1,0.4-0.2,0.7-0.2,1.2c0,0.5,0.1,0.9,0.2,1.2c0.1,0.3,0.3,0.6,0.6,0.7c0.3,0.2,0.6,0.2,1,0.2c0.5,0,1-0.1,1.4-0.4
					c0.4-0.2,0.7-0.5,0.9-0.8c0.2-0.3,0.3-0.6,0.2-0.9l0.9,1.7c-0.1,0.4-0.3,0.8-0.5,1.3c-0.2,0.4-0.5,0.9-0.9,1.2
					c-0.3,0.4-0.8,0.7-1.3,0.9s-1.1,0.4-1.8,0.4c-1,0-1.8-0.2-2.6-0.6c-0.8-0.4-1.4-1-1.8-1.8c-0.4-0.8-0.7-1.7-0.7-2.8
					c0-0.9,0.1-1.7,0.4-2.4s0.7-1.3,1.3-1.8c0.6-0.5,1.3-0.9,2.1-1.2c0.9-0.3,1.9-0.4,3-0.4H590.5z M589.9,869v-8.3
					c0-0.6-0.1-1-0.2-1.3c-0.1-0.3-0.4-0.6-0.6-0.7s-0.6-0.2-1-0.2c-0.4,0-0.8,0.1-1.1,0.3c-0.3,0.2-0.5,0.4-0.7,0.8
					c-0.1,0.3-0.2,0.7-0.2,1.1h-4.1c0-0.7,0.1-1.4,0.4-2.1c0.3-0.7,0.7-1.2,1.3-1.7c0.5-0.5,1.2-0.9,2-1.2c0.8-0.3,1.6-0.4,2.6-0.4
					c1.1,0,2.1,0.2,3,0.6c0.9,0.4,1.6,1,2.1,1.8c0.5,0.8,0.8,1.9,0.8,3.3v7.9c0,0.9,0,1.6,0.2,2.3c0.1,0.6,0.3,1.2,0.5,1.6v0.3h-4.2
					c-0.2-0.4-0.3-1-0.4-1.7C590,870.4,589.9,869.7,589.9,869z"/>
				<path class="st8" d="M602,848.1v24.7h-4.1v-24.7H602z"/>
			</g>
			<circle class="st12" cx="406.1" cy="862.5" r="9.6"/>
			<g>
				<path class="st8" d="M88.6,910.1v3.9c0,1.8-0.2,3.3-0.5,4.6c-0.3,1.3-0.8,2.3-1.4,3.1c-0.6,0.8-1.3,1.4-2.1,1.8
					s-1.7,0.6-2.7,0.6c-0.8,0-1.5-0.1-2.2-0.4c-0.7-0.2-1.3-0.6-1.9-1.1c-0.6-0.5-1-1.2-1.4-2c-0.4-0.8-0.7-1.7-0.9-2.8
					c-0.2-1.1-0.3-2.4-0.3-3.8v-3.9c0-1.8,0.2-3.3,0.5-4.6c0.3-1.3,0.8-2.3,1.4-3.1c0.6-0.8,1.3-1.4,2.1-1.8
					c0.8-0.4,1.7-0.6,2.7-0.6c0.8,0,1.5,0.1,2.2,0.4c0.7,0.2,1.3,0.6,1.8,1.1c0.5,0.5,1,1.1,1.4,1.9c0.4,0.8,0.7,1.7,0.9,2.8
					C88.5,907.4,88.6,908.7,88.6,910.1z M84.5,914.7v-5.2c0-0.9,0-1.6-0.1-2.3c-0.1-0.7-0.2-1.2-0.3-1.7c-0.1-0.5-0.3-0.8-0.5-1.1
					c-0.2-0.3-0.4-0.5-0.7-0.6s-0.6-0.2-0.9-0.2c-0.4,0-0.7,0.1-1.1,0.3c-0.3,0.2-0.6,0.5-0.8,1s-0.4,1.1-0.5,1.8
					c-0.1,0.8-0.2,1.7-0.2,2.8v5.2c0,0.9,0,1.7,0.1,2.3c0.1,0.7,0.2,1.2,0.3,1.7c0.1,0.5,0.3,0.9,0.5,1.1s0.4,0.5,0.7,0.7
					c0.3,0.1,0.6,0.2,0.9,0.2c0.4,0,0.8-0.1,1.1-0.3c0.3-0.2,0.6-0.6,0.8-1c0.2-0.5,0.4-1.1,0.5-1.9
					C84.5,916.7,84.5,915.8,84.5,914.7z"/>
				<path class="st8" d="M92.4,921.7c0-0.7,0.2-1.2,0.7-1.7s1-0.7,1.8-0.7s1.4,0.2,1.8,0.7s0.7,1,0.7,1.7c0,0.7-0.2,1.2-0.7,1.6
					c-0.4,0.4-1,0.7-1.8,0.7s-1.4-0.2-1.8-0.7C92.6,922.9,92.4,922.4,92.4,921.7z"/>
				<path class="st8" d="M104.1,920.4h0.2c1.1,0,2.1-0.2,2.8-0.5c0.8-0.3,1.4-0.8,1.8-1.5c0.5-0.6,0.8-1.4,1-2.3
					c0.2-0.9,0.3-1.9,0.3-3v-4.3c0-0.9-0.1-1.7-0.2-2.3c-0.1-0.7-0.3-1.2-0.6-1.7c-0.2-0.4-0.5-0.8-0.8-1c-0.3-0.2-0.6-0.3-1-0.3
					c-0.4,0-0.8,0.1-1.1,0.4s-0.6,0.6-0.8,1c-0.2,0.4-0.4,0.9-0.5,1.5c-0.1,0.6-0.2,1.2-0.2,1.8s0.1,1.2,0.2,1.8
					c0.1,0.6,0.3,1,0.5,1.5s0.5,0.8,0.8,1s0.7,0.4,1.2,0.4c0.4,0,0.7-0.1,1-0.3s0.6-0.5,0.9-0.9c0.3-0.4,0.5-0.8,0.6-1.2
					c0.2-0.4,0.2-0.9,0.3-1.4l1.4,0.7c0,0.8-0.1,1.5-0.4,2.3c-0.3,0.7-0.6,1.4-1.1,2c-0.5,0.6-1,1.1-1.6,1.5c-0.6,0.4-1.3,0.5-2,0.5
					c-0.9,0-1.8-0.2-2.5-0.6c-0.7-0.4-1.3-1-1.8-1.7c-0.5-0.7-0.8-1.6-1.1-2.5c-0.2-1-0.4-2-0.4-3.1c0-1.1,0.1-2.2,0.4-3.2
					c0.3-1,0.7-1.9,1.3-2.6c0.6-0.8,1.3-1.3,2.1-1.8c0.8-0.4,1.7-0.7,2.8-0.7c1,0,2,0.2,2.8,0.7c0.8,0.5,1.5,1.1,2.1,2s1,1.9,1.3,3
					c0.3,1.2,0.4,2.4,0.4,3.8v1.5c0,1.5-0.1,2.9-0.4,4.2c-0.2,1.3-0.6,2.5-1.1,3.5c-0.5,1.1-1.1,2-1.9,2.8c-0.8,0.8-1.7,1.4-2.8,1.8
					c-1.1,0.4-2.4,0.6-3.8,0.6h-0.3V920.4z"/>
				<path class="st8" d="M117.8,906.2v-1.2c0-0.9,0.2-1.7,0.5-2.4c0.3-0.7,0.8-1.3,1.5-1.8c0.6-0.4,1.4-0.7,2.3-0.7
					c1,0,1.8,0.2,2.4,0.7c0.6,0.4,1.1,1,1.4,1.8c0.3,0.7,0.5,1.5,0.5,2.4v1.2c0,0.9-0.2,1.7-0.5,2.4c-0.3,0.7-0.8,1.3-1.4,1.8
					c-0.6,0.4-1.4,0.7-2.4,0.7c-0.9,0-1.7-0.2-2.4-0.7c-0.6-0.4-1.1-1-1.5-1.8C117.9,907.8,117.8,907,117.8,906.2z M120.5,904.9v1.2
					c0,0.4,0.1,0.8,0.2,1.1c0.1,0.4,0.3,0.6,0.5,0.9c0.2,0.2,0.5,0.3,0.9,0.3s0.6-0.1,0.9-0.3s0.4-0.5,0.5-0.9
					c0.1-0.4,0.2-0.7,0.2-1.1v-1.2c0-0.4-0.1-0.8-0.2-1.1s-0.3-0.6-0.5-0.9c-0.2-0.2-0.5-0.3-0.9-0.3c-0.3,0-0.6,0.1-0.9,0.3
					c-0.2,0.2-0.4,0.5-0.5,0.9S120.5,904.5,120.5,904.9z M132.4,903.8l-9.6,18.3l-2-1.2l9.6-18.3L132.4,903.8z M127.1,919.3v-1.2
					c0-0.9,0.2-1.7,0.5-2.4c0.3-0.7,0.8-1.3,1.5-1.8c0.6-0.4,1.4-0.7,2.3-0.7c1,0,1.7,0.2,2.4,0.7c0.6,0.4,1.1,1,1.4,1.8
					c0.3,0.7,0.5,1.5,0.5,2.4v1.2c0,0.9-0.2,1.7-0.5,2.4c-0.3,0.7-0.8,1.3-1.4,1.8c-0.6,0.4-1.4,0.7-2.4,0.7c-0.9,0-1.7-0.2-2.4-0.7
					c-0.7-0.4-1.1-1-1.5-1.8C127.2,921,127.1,920.2,127.1,919.3z M129.8,918.1v1.2c0,0.4,0.1,0.8,0.2,1.1c0.1,0.4,0.3,0.6,0.6,0.9
					s0.5,0.3,0.8,0.3c0.4,0,0.7-0.1,0.9-0.3s0.4-0.5,0.5-0.9c0.1-0.3,0.1-0.7,0.1-1.1v-1.2c0-0.4-0.1-0.8-0.2-1.1
					c-0.1-0.4-0.3-0.6-0.5-0.9s-0.5-0.3-0.9-0.3c-0.3,0-0.6,0.1-0.9,0.3c-0.2,0.2-0.4,0.5-0.5,0.9
					C129.9,917.3,129.8,917.7,129.8,918.1z"/>
				<path class="st8" d="M154.6,915.4h-4.9v-3.6h4.9c0.7,0,1.3-0.2,1.8-0.5c0.5-0.3,0.8-0.8,1-1.3s0.3-1.2,0.3-1.9
					c0-0.7-0.1-1.4-0.3-2c-0.2-0.6-0.5-1.1-1-1.5c-0.5-0.4-1.1-0.6-1.8-0.6H151v19.8h-4.3v-23.4h7.9c1.6,0,2.9,0.3,4,1
					c1.1,0.7,2,1.5,2.6,2.7s0.9,2.4,0.9,3.9c0,1.5-0.3,2.8-0.9,3.9s-1.5,1.9-2.6,2.5C157.5,915.1,156.1,915.4,154.6,915.4z"/>
				<path class="st8" d="M173.3,913.2l0,2.6h-1.7c-0.5,0-0.9,0.1-1.3,0.2c-0.4,0.1-0.7,0.3-0.9,0.6s-0.4,0.6-0.6,0.9
					c-0.1,0.4-0.2,0.7-0.2,1.2c0,0.5,0.1,0.9,0.2,1.2c0.1,0.3,0.3,0.6,0.6,0.7c0.3,0.2,0.6,0.2,1,0.2c0.5,0,1-0.1,1.4-0.4
					c0.4-0.2,0.7-0.5,0.9-0.8c0.2-0.3,0.3-0.6,0.2-0.9l0.9,1.7c-0.1,0.4-0.3,0.8-0.5,1.3c-0.2,0.4-0.5,0.9-0.9,1.2
					c-0.3,0.4-0.8,0.7-1.3,0.9c-0.5,0.2-1.1,0.4-1.8,0.4c-1,0-1.8-0.2-2.6-0.6c-0.8-0.4-1.4-1-1.8-1.8c-0.4-0.8-0.7-1.7-0.7-2.8
					c0-0.9,0.1-1.7,0.4-2.4s0.7-1.3,1.3-1.8c0.6-0.5,1.3-0.9,2.1-1.2c0.9-0.3,1.9-0.4,3-0.4H173.3z M172.7,920.1v-8.3
					c0-0.6-0.1-1-0.2-1.3c-0.1-0.3-0.4-0.6-0.6-0.7s-0.6-0.2-1-0.2c-0.4,0-0.8,0.1-1.1,0.3c-0.3,0.2-0.5,0.4-0.7,0.8
					c-0.1,0.3-0.2,0.7-0.2,1.1h-4.1c0-0.7,0.1-1.4,0.4-2.1c0.3-0.7,0.7-1.2,1.3-1.7c0.5-0.5,1.2-0.9,2-1.2s1.6-0.4,2.6-0.4
					c1.1,0,2.1,0.2,3,0.6s1.6,1,2.1,1.8c0.5,0.8,0.8,1.9,0.8,3.3v7.9c0,0.9,0.1,1.6,0.2,2.3s0.3,1.2,0.5,1.6v0.3h-4.2
					c-0.2-0.4-0.3-1-0.4-1.7C172.8,921.4,172.7,920.7,172.7,920.1z"/>
				<path class="st8" d="M180.5,901.9c0-0.7,0.2-1.2,0.6-1.6c0.4-0.4,1-0.6,1.7-0.6c0.7,0,1.3,0.2,1.7,0.6c0.4,0.4,0.6,1,0.6,1.6
					c0,0.6-0.2,1.2-0.6,1.6c-0.4,0.4-0.9,0.6-1.7,0.6c-0.7,0-1.3-0.2-1.7-0.6C180.7,903.1,180.5,902.6,180.5,901.9z M184.8,906.4
					v17.4h-4.1v-17.4H184.8z"/>
				<path class="st8" d="M188,915.8v-1.3c0-1.4,0.1-2.7,0.4-3.7c0.3-1.1,0.6-1.9,1.1-2.6c0.5-0.7,1.1-1.2,1.8-1.6
					c0.7-0.3,1.5-0.5,2.4-0.5c0.8,0,1.6,0.2,2.2,0.6s1.2,1,1.6,1.7c0.4,0.7,0.8,1.6,1.1,2.6c0.3,1,0.5,2.1,0.6,3.3v1.8
					c-0.1,1.1-0.3,2.2-0.6,3.2c-0.3,1-0.6,1.8-1.1,2.6c-0.4,0.7-1,1.3-1.6,1.7c-0.6,0.4-1.4,0.6-2.2,0.6c-0.9,0-1.7-0.2-2.4-0.5
					s-1.3-0.9-1.8-1.6c-0.5-0.7-0.9-1.6-1.1-2.6C188.1,918.4,188,917.2,188,915.8z M192.1,914.5v1.3c0,0.8,0,1.6,0.1,2.2
					c0.1,0.6,0.2,1.1,0.5,1.5c0.2,0.4,0.5,0.7,0.8,0.9s0.8,0.3,1.3,0.3c0.6,0,1.2-0.2,1.6-0.5c0.4-0.3,0.7-0.8,0.9-1.3
					c0.2-0.6,0.4-1.2,0.4-1.9v-3.4c0-0.6-0.1-1.1-0.3-1.6c-0.1-0.5-0.3-0.9-0.6-1.2c-0.2-0.3-0.5-0.6-0.9-0.8
					c-0.3-0.2-0.7-0.3-1.2-0.3c-0.5,0-0.9,0.1-1.3,0.3c-0.3,0.2-0.6,0.5-0.8,0.9c-0.2,0.4-0.4,0.9-0.5,1.5S192.1,913.7,192.1,914.5z
					 M197.1,920.1v-20.9h4.1v24.7l-3.7,0L197.1,920.1z"/>
				<path class="st8" d="M222.7,917.7c0-0.5,0-0.9-0.1-1.2c-0.1-0.4-0.3-0.7-0.5-1s-0.6-0.6-1.1-0.9c-0.5-0.3-1.1-0.6-1.9-0.9
					c-0.9-0.4-1.8-0.8-2.6-1.2s-1.5-0.9-2.2-1.4c-0.6-0.5-1.1-1.2-1.5-1.9c-0.4-0.7-0.5-1.6-0.5-2.6c0-1,0.2-1.8,0.5-2.6
					c0.3-0.8,0.8-1.5,1.5-2.1c0.6-0.6,1.4-1,2.3-1.3s1.9-0.5,2.9-0.5c1.5,0,2.8,0.3,3.9,0.9c1.1,0.6,1.9,1.5,2.5,2.6
					s0.9,2.3,0.9,3.7h-4.3c0-0.7-0.1-1.3-0.3-1.9c-0.2-0.6-0.5-1-1-1.3c-0.5-0.3-1-0.5-1.7-0.5c-0.7,0-1.2,0.1-1.6,0.4
					c-0.4,0.3-0.7,0.6-0.9,1.1c-0.2,0.4-0.3,1-0.3,1.5c0,0.4,0.1,0.8,0.3,1.1c0.2,0.3,0.4,0.6,0.8,0.9s0.7,0.5,1.2,0.8
					c0.5,0.2,1,0.5,1.6,0.7c1.1,0.4,2,0.9,2.8,1.3c0.8,0.5,1.5,1,2,1.6c0.5,0.6,0.9,1.3,1.2,2s0.4,1.6,0.4,2.6c0,1-0.2,1.8-0.5,2.6
					c-0.3,0.8-0.8,1.5-1.4,2c-0.6,0.6-1.4,1-2.3,1.3c-0.9,0.3-1.9,0.5-3,0.5c-1,0-2-0.2-3-0.5c-0.9-0.3-1.8-0.8-2.5-1.4
					c-0.7-0.6-1.3-1.4-1.7-2.4c-0.4-0.9-0.6-2.1-0.6-3.3h4.3c0,0.7,0.1,1.3,0.2,1.9c0.2,0.5,0.4,0.9,0.7,1.3s0.7,0.5,1.2,0.7
					c0.4,0.1,1,0.2,1.5,0.2c0.7,0,1.2-0.1,1.6-0.4c0.4-0.2,0.7-0.6,0.9-1C222.6,918.8,222.7,918.3,222.7,917.7z"/>
				<path class="st8" d="M236.8,924.1c-1.2,0-2.2-0.2-3.1-0.5c-0.9-0.4-1.7-0.9-2.3-1.5c-0.6-0.7-1.1-1.5-1.4-2.5
					c-0.3-1-0.5-2.1-0.5-3.4v-1.6c0-1.4,0.2-2.7,0.5-3.8c0.3-1.1,0.8-1.9,1.4-2.6c0.6-0.7,1.3-1.2,2.2-1.6c0.8-0.3,1.8-0.5,2.8-0.5
					c1.1,0,2,0.2,2.9,0.5c0.8,0.4,1.5,0.9,2,1.6c0.5,0.7,0.9,1.6,1.2,2.6c0.3,1,0.4,2.2,0.4,3.6v2h-11.5v-3h7.4v-0.4
					c0-0.7-0.1-1.4-0.3-1.9c-0.2-0.5-0.4-0.9-0.8-1.2c-0.3-0.3-0.8-0.4-1.4-0.4c-0.5,0-0.9,0.1-1.2,0.3c-0.3,0.2-0.6,0.5-0.8,0.9
					c-0.2,0.4-0.4,0.9-0.5,1.6c-0.1,0.6-0.2,1.4-0.2,2.4v1.6c0,0.8,0.1,1.5,0.2,2.1c0.2,0.6,0.4,1,0.7,1.4c0.3,0.4,0.6,0.6,1.1,0.8
					c0.4,0.2,0.9,0.2,1.5,0.2c0.8,0,1.6-0.2,2.2-0.5s1.2-0.7,1.6-1.2l1.7,2.5c-0.3,0.4-0.7,0.8-1.3,1.2s-1.2,0.7-1.9,1
					S237.8,924.1,236.8,924.1z"/>
				<path class="st8" d="M254.1,913.2l0,2.6h-1.7c-0.5,0-0.9,0.1-1.3,0.2c-0.4,0.1-0.7,0.3-0.9,0.6s-0.5,0.6-0.6,0.9
					c-0.1,0.4-0.2,0.7-0.2,1.2c0,0.5,0.1,0.9,0.2,1.2c0.1,0.3,0.3,0.6,0.6,0.7s0.6,0.2,1,0.2c0.5,0,1-0.1,1.4-0.4
					c0.4-0.2,0.7-0.5,0.9-0.8c0.2-0.3,0.3-0.6,0.2-0.9l0.9,1.7c-0.1,0.4-0.3,0.8-0.5,1.3c-0.2,0.4-0.5,0.9-0.9,1.2
					c-0.3,0.4-0.8,0.7-1.3,0.9s-1.1,0.4-1.8,0.4c-1,0-1.8-0.2-2.6-0.6c-0.8-0.4-1.4-1-1.8-1.8c-0.4-0.8-0.7-1.7-0.7-2.8
					c0-0.9,0.1-1.7,0.4-2.4s0.7-1.3,1.3-1.8c0.6-0.5,1.3-0.9,2.1-1.2c0.9-0.3,1.9-0.4,3.1-0.4H254.1z M253.5,920.1v-8.3
					c0-0.6-0.1-1-0.2-1.3c-0.1-0.3-0.4-0.6-0.6-0.7s-0.6-0.2-1-0.2c-0.4,0-0.8,0.1-1.1,0.3c-0.3,0.2-0.5,0.4-0.7,0.8
					c-0.1,0.3-0.2,0.7-0.2,1.1h-4.1c0-0.7,0.1-1.4,0.4-2.1c0.3-0.7,0.7-1.2,1.3-1.7s1.2-0.9,2-1.2s1.6-0.4,2.6-0.4
					c1.1,0,2.1,0.2,3,0.6c0.9,0.4,1.6,1,2.1,1.8c0.5,0.8,0.8,1.9,0.8,3.3v7.9c0,0.9,0,1.6,0.2,2.3c0.1,0.6,0.3,1.2,0.5,1.6v0.3h-4.2
					c-0.2-0.4-0.3-1-0.4-1.7C253.6,921.4,253.5,920.7,253.5,920.1z"/>
				<path class="st8" d="M265.4,910.1v13.8h-4.1v-17.4h3.9L265.4,910.1z M269.5,906.3l0,4.1c-0.2,0-0.5-0.1-0.7-0.1
					c-0.3,0-0.5,0-0.7,0c-0.5,0-0.9,0.1-1.3,0.3c-0.4,0.2-0.7,0.4-0.9,0.7s-0.4,0.7-0.6,1.2c-0.1,0.5-0.2,1-0.2,1.6l-0.8-0.1
					c0-1.1,0.1-2.1,0.3-3.1c0.2-0.9,0.4-1.8,0.8-2.5c0.3-0.7,0.8-1.2,1.3-1.6c0.5-0.4,1.1-0.6,1.8-0.6c0.2,0,0.4,0,0.7,0.1
					C269.2,906.2,269.4,906.3,269.5,906.3z"/>
				<path class="st8" d="M277.8,920.7c0.4,0,0.8-0.1,1.2-0.3s0.6-0.5,0.8-0.9c0.2-0.4,0.3-0.9,0.3-1.6h3.9c0,1.3-0.3,2.4-0.8,3.3
					c-0.6,0.9-1.3,1.6-2.2,2.2s-1.9,0.8-3.1,0.8c-1.2,0-2.2-0.2-3-0.6c-0.9-0.4-1.6-0.9-2.1-1.6s-1-1.6-1.3-2.6
					c-0.3-1-0.4-2.2-0.4-3.5v-1.4c0-1.3,0.1-2.5,0.4-3.5c0.3-1,0.7-1.9,1.3-2.6s1.3-1.3,2.1-1.6c0.9-0.4,1.9-0.6,3-0.6
					c1.2,0,2.3,0.3,3.2,0.8c0.9,0.5,1.6,1.3,2.1,2.3c0.5,1,0.8,2.2,0.8,3.7h-3.9c0-0.7-0.1-1.3-0.3-1.8c-0.2-0.5-0.4-0.8-0.8-1.1
					c-0.3-0.3-0.8-0.4-1.3-0.4c-0.6,0-1,0.1-1.4,0.3c-0.3,0.2-0.6,0.5-0.8,1c-0.2,0.4-0.3,0.9-0.4,1.5c-0.1,0.6-0.1,1.3-0.1,2.1v1.4
					c0,0.8,0,1.5,0.1,2.1c0.1,0.6,0.2,1.1,0.4,1.5c0.2,0.4,0.4,0.7,0.8,0.9S277.3,920.7,277.8,920.7z"/>
				<path class="st8" d="M290.8,899.2v24.7h-4.1v-24.7H290.8z M290.1,914.5l-1.2,0c0-1.2,0.1-2.3,0.4-3.4s0.6-1.9,1.1-2.7
					c0.5-0.8,1.1-1.3,1.8-1.8c0.7-0.4,1.5-0.6,2.3-0.6c0.7,0,1.4,0.1,1.9,0.4c0.6,0.2,1.1,0.6,1.5,1.1c0.4,0.5,0.8,1.2,1,2
					c0.2,0.8,0.3,1.9,0.3,3.1v11.1h-4.1v-11.1c0-0.8-0.1-1.4-0.2-1.9c-0.2-0.5-0.4-0.8-0.7-1c-0.3-0.2-0.7-0.3-1.2-0.3
					c-0.5,0-0.9,0.1-1.3,0.4c-0.4,0.3-0.7,0.6-0.9,1.1s-0.4,1-0.5,1.6S290.1,913.8,290.1,914.5z"/>
			</g>
			<circle class="st13" cx="51" cy="913.5" r="9.6"/>
			<g>
				<path class="st8" d="M440.1,900.4v23.4h-4.1v-18.3l-4.6,1.8v-3.5l8.2-3.4H440.1z"/>
				<path class="st8" d="M447.5,921.7c0-0.7,0.2-1.2,0.7-1.7s1-0.7,1.8-0.7c0.8,0,1.4,0.2,1.8,0.7s0.7,1,0.7,1.7
					c0,0.7-0.2,1.2-0.7,1.6c-0.4,0.4-1,0.7-1.8,0.7c-0.8,0-1.4-0.2-1.8-0.7C447.7,922.9,447.5,922.4,447.5,921.7z"/>
				<path class="st8" d="M460.3,913.1l-3.3-0.8l1.1-11.8h11v3.6h-7.6l-0.5,5.3c0.3-0.2,0.7-0.4,1.2-0.6s1-0.3,1.7-0.3
					c1,0,1.8,0.2,2.5,0.5c0.7,0.4,1.4,0.9,1.9,1.5c0.5,0.7,0.9,1.5,1.2,2.5s0.4,2.1,0.4,3.3c0,1.1-0.1,2.1-0.4,3
					c-0.3,0.9-0.7,1.8-1.3,2.5s-1.3,1.3-2.1,1.7s-1.8,0.6-3,0.6c-0.8,0-1.7-0.1-2.4-0.4c-0.8-0.3-1.5-0.7-2.1-1.3
					c-0.6-0.6-1.1-1.3-1.5-2.1c-0.4-0.8-0.6-1.8-0.6-2.9h4c0.1,0.7,0.2,1.3,0.4,1.8c0.2,0.5,0.5,0.9,0.9,1.1
					c0.4,0.3,0.8,0.4,1.3,0.4s0.9-0.1,1.2-0.3s0.6-0.5,0.8-1c0.2-0.4,0.4-0.9,0.5-1.5c0.1-0.6,0.2-1.2,0.2-1.8s-0.1-1.2-0.2-1.8
					c-0.1-0.5-0.3-1-0.6-1.4c-0.3-0.4-0.6-0.7-0.9-0.9c-0.4-0.2-0.8-0.3-1.3-0.3c-0.7,0-1.2,0.1-1.5,0.4
					C460.8,912.4,460.5,912.8,460.3,913.1z"/>
				<path class="st8" d="M472.9,906.2v-1.2c0-0.9,0.2-1.7,0.5-2.4c0.3-0.7,0.8-1.3,1.5-1.8c0.6-0.4,1.4-0.7,2.3-0.7
					c1,0,1.8,0.2,2.4,0.7c0.6,0.4,1.1,1,1.4,1.8c0.3,0.7,0.5,1.5,0.5,2.4v1.2c0,0.9-0.2,1.7-0.5,2.4c-0.3,0.7-0.8,1.3-1.4,1.8
					c-0.6,0.4-1.4,0.7-2.4,0.7c-0.9,0-1.7-0.2-2.4-0.7c-0.6-0.4-1.1-1-1.5-1.8C473,907.8,472.9,907,472.9,906.2z M475.6,904.9v1.2
					c0,0.4,0.1,0.8,0.2,1.1c0.1,0.4,0.3,0.6,0.5,0.9s0.5,0.3,0.9,0.3s0.6-0.1,0.9-0.3s0.4-0.5,0.5-0.9c0.1-0.4,0.2-0.7,0.2-1.1v-1.2
					c0-0.4-0.1-0.8-0.2-1.1s-0.3-0.6-0.5-0.9c-0.2-0.2-0.5-0.3-0.9-0.3c-0.3,0-0.6,0.1-0.9,0.3c-0.2,0.2-0.4,0.5-0.5,0.9
					C475.7,904.2,475.6,904.5,475.6,904.9z M487.5,903.8l-9.6,18.3l-2-1.2l9.6-18.3L487.5,903.8z M482.1,919.3v-1.2
					c0-0.9,0.2-1.7,0.5-2.4c0.3-0.7,0.8-1.3,1.5-1.8c0.6-0.4,1.4-0.7,2.3-0.7c1,0,1.7,0.2,2.4,0.7c0.6,0.4,1.1,1,1.4,1.8
					c0.3,0.7,0.5,1.5,0.5,2.4v1.2c0,0.9-0.2,1.7-0.5,2.4c-0.3,0.7-0.8,1.3-1.4,1.8c-0.6,0.4-1.4,0.7-2.4,0.7c-0.9,0-1.7-0.2-2.4-0.7
					c-0.7-0.4-1.1-1-1.5-1.8C482.3,921,482.1,920.2,482.1,919.3z M484.9,918.1v1.2c0,0.4,0.1,0.8,0.2,1.1c0.1,0.4,0.3,0.6,0.6,0.9
					c0.2,0.2,0.5,0.3,0.8,0.3c0.4,0,0.7-0.1,0.9-0.3s0.4-0.5,0.5-0.9s0.1-0.7,0.1-1.1v-1.2c0-0.4-0.1-0.8-0.2-1.1
					c-0.1-0.4-0.3-0.6-0.5-0.9s-0.5-0.3-0.9-0.3c-0.3,0-0.6,0.1-0.9,0.3c-0.2,0.2-0.4,0.5-0.5,0.9
					C485,917.3,484.9,917.7,484.9,918.1z"/>
				<path class="st8" d="M518,910.3v3.9c0,1.6-0.2,3.1-0.6,4.3c-0.4,1.2-0.9,2.3-1.7,3.1c-0.7,0.8-1.6,1.5-2.6,1.9
					c-1,0.4-2.1,0.6-3.4,0.6c-1.2,0-2.4-0.2-3.4-0.6c-1-0.4-1.9-1-2.6-1.9c-0.7-0.8-1.3-1.9-1.7-3.1c-0.4-1.2-0.6-2.7-0.6-4.3v-3.9
					c0-1.7,0.2-3.2,0.6-4.4c0.4-1.3,1-2.3,1.7-3.2c0.7-0.8,1.6-1.5,2.6-1.9c1-0.4,2.1-0.7,3.4-0.7c1.2,0,2.4,0.2,3.4,0.7
					s1.9,1.1,2.6,1.9c0.7,0.8,1.3,1.9,1.7,3.2S518,908.6,518,910.3z M513.7,914.2v-4c0-1.1-0.1-2.1-0.3-3c-0.2-0.8-0.4-1.5-0.8-2
					c-0.3-0.5-0.8-0.9-1.3-1.1s-1.1-0.4-1.7-0.4c-0.7,0-1.2,0.1-1.7,0.4s-0.9,0.6-1.3,1.1c-0.3,0.5-0.6,1.2-0.8,2
					c-0.2,0.8-0.3,1.8-0.3,3v4c0,1.1,0.1,2.1,0.3,2.9c0.2,0.8,0.4,1.5,0.8,2s0.8,0.9,1.3,1.1c0.5,0.2,1.1,0.4,1.7,0.4
					c0.6,0,1.2-0.1,1.7-0.4c0.5-0.2,0.9-0.6,1.3-1.1s0.6-1.2,0.8-2S513.7,915.3,513.7,914.2z"/>
				<path class="st8" d="M528.7,906.4v3.1H520v-3.1H528.7z M522.2,902.2h4.1v16.6c0,0.5,0.1,0.9,0.2,1.2c0.1,0.3,0.3,0.5,0.5,0.6
					s0.5,0.1,0.8,0.1c0.2,0,0.4,0,0.6,0c0.2,0,0.4-0.1,0.5-0.1l0,3.3c-0.3,0.1-0.7,0.2-1,0.3c-0.4,0.1-0.8,0.1-1.3,0.1
					c-0.8,0-1.6-0.2-2.2-0.5c-0.6-0.3-1.1-0.9-1.5-1.6c-0.4-0.7-0.5-1.7-0.5-2.9V902.2z"/>
				<path class="st8" d="M535.4,899.2v24.7h-4.1v-24.7H535.4z M534.8,914.5l-1.2,0c0-1.2,0.1-2.3,0.4-3.4s0.6-1.9,1.1-2.7
					c0.5-0.8,1.1-1.3,1.8-1.8c0.7-0.4,1.5-0.6,2.3-0.6c0.7,0,1.4,0.1,1.9,0.4c0.6,0.2,1.1,0.6,1.5,1.1s0.8,1.2,1,2
					c0.2,0.8,0.3,1.9,0.3,3.1v11.1h-4.1v-11.1c0-0.8-0.1-1.4-0.2-1.9c-0.2-0.5-0.4-0.8-0.7-1c-0.3-0.2-0.7-0.3-1.2-0.3
					c-0.5,0-0.9,0.1-1.3,0.4c-0.4,0.3-0.7,0.6-0.9,1.1c-0.2,0.5-0.4,1-0.5,1.6S534.8,913.8,534.8,914.5z"/>
				<path class="st8" d="M554.3,924.1c-1.2,0-2.2-0.2-3.1-0.5c-0.9-0.4-1.7-0.9-2.3-1.5c-0.6-0.7-1.1-1.5-1.4-2.5
					c-0.3-1-0.5-2.1-0.5-3.4v-1.6c0-1.4,0.2-2.7,0.5-3.8c0.3-1.1,0.8-1.9,1.4-2.6c0.6-0.7,1.3-1.2,2.2-1.6c0.8-0.3,1.8-0.5,2.8-0.5
					c1.1,0,2,0.2,2.9,0.5s1.5,0.9,2,1.6c0.5,0.7,0.9,1.6,1.2,2.6c0.3,1,0.4,2.2,0.4,3.6v2h-11.5v-3h7.4v-0.4c0-0.7-0.1-1.4-0.3-1.9
					s-0.4-0.9-0.8-1.2c-0.3-0.3-0.8-0.4-1.4-0.4c-0.5,0-0.9,0.1-1.2,0.3c-0.3,0.2-0.6,0.5-0.8,0.9s-0.4,0.9-0.5,1.6
					c-0.1,0.6-0.2,1.4-0.2,2.4v1.6c0,0.8,0.1,1.5,0.2,2.1c0.2,0.6,0.4,1,0.7,1.4c0.3,0.4,0.6,0.6,1.1,0.8c0.4,0.2,0.9,0.2,1.5,0.2
					c0.8,0,1.6-0.2,2.2-0.5c0.6-0.3,1.2-0.7,1.6-1.2l1.7,2.5c-0.3,0.4-0.7,0.8-1.3,1.2s-1.2,0.7-1.9,1
					C556.2,924,555.3,924.1,554.3,924.1z"/>
				<path class="st8" d="M567.3,910.1v13.8h-4.1v-17.4h3.9L567.3,910.1z M571.4,906.3l0,4.1c-0.2,0-0.5-0.1-0.7-0.1s-0.5,0-0.7,0
					c-0.5,0-0.9,0.1-1.3,0.3c-0.4,0.2-0.7,0.4-0.9,0.7s-0.4,0.7-0.6,1.2c-0.1,0.5-0.2,1-0.2,1.6l-0.8-0.1c0-1.1,0.1-2.1,0.3-3.1
					c0.2-0.9,0.4-1.8,0.8-2.5c0.3-0.7,0.8-1.2,1.3-1.6c0.5-0.4,1.1-0.6,1.8-0.6c0.2,0,0.4,0,0.7,0.1
					C571.1,906.2,571.3,906.3,571.4,906.3z"/>
			</g>
			<circle class="st14" cx="406.1" cy="913.5" r="9.6"/>
		</g>
	</g>
</g>
</svg>
